<svg width="512" height="512" id="hexatar-preview" version="1.1" xmlns="http://www.w3.org/2000/svg" xmlns:xlink="http://www.w3.org/1999/xlink" x="0px" y="0px" viewBox="0 0 512 512" style="enable-background:new 0 0 512 512;" xml:space="preserve">
    <g id="hexatar-background"><g class="hexatar-base">
		<rect class="col-obj" x="-0.003" y="0.002" style="fill: rgb(200, 214, 224);" width="512" height="512"></rect>
		<path class="light-obj" style="opacity: 0.9; fill: rgb(233, 238, 242);" d="M281.14,0.239h-39.041l19.523,249.409L281.14,0.239z M0.236,235.926 v27.461l261.371-13.732L0.236,235.926z M511.76,429.885l-250.13-180.221l250.13,232.994V429.885z M0.236,6.17v55.146 l261.381,188.336L0.236,6.17z M0.236,437.998v55.147l261.376-243.476L0.236,437.998z M261.631,249.664L261.631,249.664 L261.631,249.664L261.631,249.664z M158.761,0.239l102.856,249.409L110.949,0.239H58.828l202.793,249.416L200.614,0.239H158.761z M511.76,16.659L261.636,249.648L464.429,0.239h-52.13L261.636,249.644L364.496,0.239h-41.858l-61.008,249.414l-0.009,0.002 l0.005,0.005h0.005l250.13,136.502v-35.087L261.645,249.664l250.115,69.233V290.72l-250.13-41.065l250.13,13.142v-26.282 l-250.115,13.14l250.115-41.06v-28.177l-250.125,69.237L511.76,148.24v-35.092L261.659,249.636L511.76,69.43V16.659z M0.236,107.01v36.666l261.373,105.977L0.236,177.303v29.445l261.385,42.907l-0.011-0.003L0.236,107.01z M0.236,392.303 L261.617,249.66L0.236,355.644V392.303z M48.51,511.763h54.783l158.324-262.085L153.534,511.763h43.989l64.09-262.02 l-20.507,262.02h41.032l-20.511-262.08l64.104,262.08h43.988L261.631,249.669L419.96,511.763h54.778L261.63,249.665l-0.004,0.004 l-0.005-0.005l0.005,0.014l-0.005,0.005v-0.019h0.008l-0.004-0.005h-0.005L48.51,511.763z M0.236,322.014l261.376-72.354 L0.236,292.571V322.014z M261.612,249.66h0.005h0.005v-0.005L261.612,249.66z"></path>
	</g></g>
	<g id="hexatar-hair-rear"></g>
	<g id="hexatar-bodies">
		<g id="hexatar-body">
			<polygon class="col-obj" style="fill:#FCE2E1;" points="380.515,465 301,451 301,334 211,334 211,451 131.636,465 94.115,512   418.035,512 "></polygon>
			<polygon class="shadow-obj" style="fill: rgb(247, 181, 179);" points="380.541,465 301,451 301,334 256,334 256,512 418.062,512 "></polygon>
			<polygon id="hexatar-neck-control" class="shadow-obj-2x" style="opacity: 0.5; fill: rgb(242, 136, 133);" points="301.054,387.482 255.998,427.693 210.942,384.615  210.942,333.485 301.054,333.485 "></polygon>
		</g>
		<g id="hexatar-clothes"><g class="hexatar-base">
		<path class="shadow-obj-2x" style="fill: rgb(62, 54, 31);" d="M346.448,403.978h-45.425v39.381h59.934v-24.872 C360.957,410.474,354.461,403.978,346.448,403.978z M151.031,418.935v24.424h59.94l0.001-39.381l-44.985,0.001 C157.727,403.979,151.031,410.675,151.031,418.935z"></path>
		<polygon class="static-obj" style="fill:#666666;" points="383.147,464.994 315.28,435.317 256,450.573 196.75,435.317  129.466,462.994 92.159,511.994 258.323,511.994 420.454,511.994"></polygon>
		<polygon class="white-obj" style="fill:#FFFFFF;" points="187.185,456.112 326.253,456.112 326.285,443.359 301.023,413.648  301.023,428.094 210.971,427.889 211.014,413.648 187.426,443.359"></polygon>
		<path class="col-obj" style="fill: rgb(130, 113, 65);" d="M147.403,455.083l-35.16,9.912l-37.084,47h131.175l-14.054-27.832l14.054-13.916 c0-30.157-25.145-52.086-55.302-52.086L151,432.343L147.403,455.083z M399.755,464.994l-35.376-9.595L361,432.343l0-14.182 c-30.157,0-54.605,21.929-54.605,52.086l14.054,13.916l-14.054,27.832h130.444L399.755,464.994z"></path>
		<path class="shadow-obj" style="opacity: 0.4; fill: rgb(96, 83, 48);" d="M399.532,464.994L388.811,512l48.028-0.006L399.532,464.994z M75.159,511.994L123.836,512l-11.37-47.006L75.159,511.994z M361,418.16c-30.157,0-54.605,21.929-54.605,52.086l14.054,13.916 c0,0,16.598-17.82,43.93-28.764L361,432.343L361,418.16z"></path>
	</g></g>
	</g>
	<g id="hexatar-faces">
		<g id="hexatar-ears"><g class="hexatar-base">
		<g class="hexatar-ears-right"> 	<path class="col-obj" style="fill:#FCE2E1;" d="M172.062,168.76v69.632h-11.593c-18.105,0-32.781-14.677-32.781-32.781V168.76 H172.062z"></path> 	<path class="shadow-obj" style="fill: rgb(247, 181, 179);" d="M160.469,228.392c-12.562,0-22.781-10.22-22.781-22.781V178.76h34.374v49.632 H160.469z"></path>
		</g>
		<g class="hexatar-ears-left"> 	<path class="shadow-obj" style="fill: rgb(247, 181, 179);" d="M340.163,238.392V168.76h42.812v36.851c0,18.105-14.677,32.781-32.781,32.781 H340.163z"></path> 	<path class="shadow-obj-2x" style="fill: rgb(242, 136, 133);" d="M340.163,228.392V178.76h32.812v26.851 c0,12.562-10.22,22.781-22.781,22.781H340.163z"></path>
		</g>
	</g></g>
		<g id="hexatar-face"><g class="hexatar-base">
		<polygon class="col-obj" style="fill:#FCE2E1;" points="256.005,7.17 153.605,71.355 153.605,244.585 164.988,291.074  172.157,337.563 214.516,367.015 225.277,386.05 256.005,386.05 286.732,386.05 297.493,367.015 339.852,337.563 347.021,291.003  358.404,244.442 358.404,71.355"></polygon>
		<polygon class="shadow-obj" style="fill: rgb(247, 181, 179);" points="286.732,386.05 297.494,367.015 339.852,337.563 347.021,291.003  358.404,244.442 358.404,71.355 256.005,7.17 256.005,386.05"></polygon>
		<polygon class="shadow-obj" style="opacity: 0.5; fill: rgb(247, 181, 179);" points="214.516,367.015 172.157,337.563 164.988,291.074"></polygon>
		<polygon class="shadow-obj-2x" style="opacity: 0.5; fill: rgb(242, 136, 133);" points="347.021,291.003 297.494,367.015 339.852,337.563"></polygon>
	</g></g>
		<g id="hexatar-mouth"><g class="hexatar-base">
		<polygon class="col-obj" style="fill: rgb(236, 163, 143);" points="220.382,311.877 292.295,311.877 267.146,328.877 245.531,328.877"></polygon>
		<polygon class="shadow-obj" style="fill: rgb(229, 127, 99);" points="262.624,296.236 256.339,303.115 250.054,296.236 238.062,296.292  211.196,311.877 301.481,311.877 273.939,296.181"></polygon>
	</g></g>
		<g id="hexatar-beard"><g class="hexatar-base">
		<polygon class="col-obj" style="fill: rgb(209, 172, 79);" points="300.439,329.091 296.744,358.831 268.29,358.831 268.29,351.351  261.463,335.083 250.726,335.083 243.899,351.351 243.899,358.831 218.255,358.831 211.784,331.215 203.905,379.588  234.299,412.026 279.356,412.026 308.312,379.588 308.312,379.588"></polygon>
		<polygon class="shadow-obj" style="opacity: 0.4; fill: rgb(188, 148, 49);" points="300.439,329.091 296.744,358.831 268.29,358.831 268.29,351.351  261.463,335.083 256.093,335.083 256.093,412.026 279.356,412.026 308.312,379.588 308.312,379.588"></polygon>
	</g></g>
		<g id="hexatar-mustache"></g>
		<g id="hexatar-nose"><g class="hexatar-base">
		<polygon class="shadow-obj" style="fill: rgb(247, 181, 179);" points="271.118,238.727 261.69,180.775 250.312,180.775 240.883,238.727  236.032,238.727 231.425,252.463 237.569,257.069 240.677,256.214 249.857,266.281 256.001,266.281 262.145,266.281  271.325,256.214 274.433,257.069 280.577,252.463 275.969,238.727"></polygon>
		<polygon class="shadow-obj-2x" style="fill: rgb(242, 136, 133);" points="271.118,238.727 261.69,180.775 256.001,180.775 256.001,266.281  262.145,266.281 271.325,256.214 274.433,257.069 280.577,252.463 275.969,238.727"></polygon>
	</g></g>
		<g id="hexatar-eyeGroup">
			<g id="hexatar-eye"><g class="hexatar-base">
		<g class="hexatar-eye-right">
			<path class="white-obj" style="fill:#FFFFFF;" d="M228.334,199.414c0,0,0.659,0.662,1.573,0.286 c0.914-0.376,0.632-1.626-0.697-3.362c-1.329-1.736-7.855-7.925-7.855-7.925h-22.604l-10.944,6.07c0,0,4.271,10.456,20.837,9.252 C225.208,202.53,228.334,199.414,228.334,199.414z"></path>
			<path class="shadow-obj" style="opacity: 0.3; fill: rgb(0, 0, 0);" d="M220.579,191.427c-0.12-1.069-0.402-2.081-0.817-3.015h-18.74 c-0.718,1.612-1.039,3.425-0.828,5.305c0.633,5.629,5.708,9.68,11.337,9.047C217.161,202.132,221.211,197.056,220.579,191.427z"></path>
			<circle class="col-obj" style="fill: rgb(17, 17, 17);" cx="210.386" cy="192.573" r="5.308"></circle>
			<circle class="white-obj" style="fill:#FFFFFF;" cx="206.67" cy="195.834" r="3.301"></circle>
			<path class="hair-col" style="fill: rgb(66, 66, 66);" d="M221.186,189.621c3.431,2.431,6.577,5.433,9.364,9.007 c-1.066-3.792-8.078-9.864-8.434-10.079c-6.505-2.216-14.511-2.359-24.16-0.572c-3.431,1.787-7.148,4.146-11.222,7.077 l12.365-5.504C199.814,189.407,220.615,189.478,221.186,189.621z"></path>
			<path class="skin-col" style="fill: rgb(242, 136, 133);" d="M189.594,202.559c5.504,5.316,26.109,11.196,39.027,1.786 C220.443,209.122,198.929,209.319,189.594,202.559z M228.334,199.414c-8.115,3.535-24.802,4.36-25.875,4.431 C204.532,204.488,223.07,203.734,228.334,199.414z"></path>
		</g>
		<g class="hexatar-eye-left">
			<path class="white-obj" style="fill:#FFFFFF;" d="M285.331,199.414c0,0-0.659,0.662-1.573,0.286 c-0.914-0.376-0.632-1.626,0.697-3.362c1.329-1.736,7.855-7.925,7.855-7.925h22.604l10.944,6.07c0,0-4.271,10.456-20.837,9.252 C288.457,202.53,285.331,199.414,285.331,199.414z"></path>
			<path class="shadow-obj" style="opacity: 0.3; fill: rgb(0, 0, 0);" d="M293.087,191.427c0.12-1.069,0.402-2.081,0.817-3.015h18.74 c0.718,1.612,1.039,3.425,0.828,5.305c-0.633,5.629-5.708,9.68-11.337,9.047C296.505,202.132,292.454,197.056,293.087,191.427z"></path>
			<circle class="col-obj" style="fill: rgb(17, 17, 17);" cx="303.279" cy="192.573" r="5.308"></circle>
			<circle class="white-obj" style="fill:#FFFFFF;" cx="306.995" cy="195.834" r="3.301"></circle>
			<path class="hair-col-2x" style="fill: rgb(40, 40, 40);" d="M314.565,189.55l12.365,5.504c-4.074-2.931-7.79-5.29-11.222-7.077 c-9.649-1.787-17.655-1.644-24.16,0.572c-0.356,0.214-7.368,6.286-8.434,10.079c2.788-3.574,5.933-6.576,9.364-9.007 C293.05,189.478,313.851,189.407,314.565,189.55z"></path>
			<path class="skin-col-2x" style="fill: rgb(237, 91, 87);" d="M311.206,203.845c-1.073-0.071-17.76-0.896-25.875-4.431 C290.595,203.734,309.133,204.488,311.206,203.845z M285.045,204.345c12.918,9.409,33.522,3.53,39.027-1.786 C314.737,209.319,293.222,209.122,285.045,204.345z"></path>
		</g>
	</g></g>
			<g id="hexatar-eyebrows"><g class="hexatar-base">
		<g class="hexatar-eyebrows-right"> 	<path class="col-obj" style="fill: rgb(66, 66, 66);" d="M182.905,167.553l10.957-3.576l10.134,3.022l3.458,1.732 c6.944,3.477,14.489,5.593,22.228,6.233l2.253,0.186l0,0c-1.587-5.55-6.403-9.567-12.147-10.135l-3.113-0.308l-0.753-0.276 c-7.834-2.874-16.175-4.111-24.506-3.636h0L182.905,167.553z"></path>
		</g>
		<g class="hexatar-eyebrows-left"> 	<path class="col-obj" style="fill: rgb(66, 66, 66);" d="M329.858,167.553l-10.957-3.576l-10.134,3.022l-3.458,1.732 c-6.944,3.477-14.489,5.593-22.228,6.233l-2.253,0.186l0,0c1.587-5.55,6.403-9.567,12.147-10.135l3.113-0.308l0.753-0.276 c7.834-2.874,16.175-4.111,24.506-3.636h0L329.858,167.553z"></path> 	<path class="shadow-obj" style="opacity: 0.4; fill: rgb(40, 40, 40);" d="M329.858,167.553l-10.957-3.576l-10.134,3.022l-3.458,1.732 c-6.944,3.477-14.489,5.593-22.228,6.233l-2.253,0.186l0,0c1.587-5.55,6.403-9.567,12.147-10.135l3.113-0.308l0.753-0.276 c7.834-2.874,16.175-4.111,24.506-3.636h0L329.858,167.553z"></path>
		</g>
	</g></g>	
		</g>
		<g id="hexatar-hair-front"><g class="element-front">
			<polygon class="col-obj" style="fill: rgb(201, 143, 26);" points="256.211,6.901 153.602,71.356 153.602,232.942 172.515,232.942  172.515,139.266 186.685,125.614 186.685,72.492 284.676,107.227 325.319,107.227 325.319,125.614 339.49,139.266  339.49,232.942 358.402,232.942 358.403,71.356"></polygon>
			<polygon class="shadow-obj" style="opacity: 0.4; fill: rgb(156, 111, 20);" points="256.211,6.901 256.211,97.137 284.676,107.227 325.319,107.227  325.319,125.614 339.49,139.266 339.49,232.942 358.402,232.942 358.403,71.356"></polygon>
		</g></g>
		<g id="hexatar-hat"></g>
		<g id="hexatar-eyeglasses"><g class="hexatar-base">
		<g class="hexatar-eyeglasses-right">
			<path class="col-obj" style="fill: rgb(102, 102, 102);" d="M245.242,180.436c-13.782-9.577-62.58-5.999-72.885-0.953 c-3.4,1.665-5.544,4.862-6.652,8.893l-6.659,1.065c-1.942,1.171-1.838,7.462,0.002,10.473l6.121,1.145 c0.909,6.871,3.472,14.133,7.204,19.99c10.197,16.007,45.721,15.871,59.835,7.463c7.858-4.682,13.752-14.969,16.397-24.958 c3.981-9.379,7.395-8.281,7.395-8.281v-9.691C252.301,185.581,251.451,183.463,245.242,180.436z M228.231,224.58 c-11.851,7.06-41.751,6.514-50.241-6.266c-7.705-11.598-9.406-30.296,0-34.901c9.406-4.605,57.02-7.756,63.527,3.156 C246.71,195.275,240.083,217.52,228.231,224.58z"></path>
		</g>
		<g class="hexatar-eyeglasses-left">
			<path class="col-obj" style="fill: rgb(102, 102, 102);" d="M352.954,189.44l-6.663-1.065c-1.108-4.031-3.26-7.228-6.66-8.893 c-10.341-5.063-59.485-8.649-73.074,1.052c-6.018,2.976-6.858,5.047-10.558,5.047v9.691c0,0,3.327-1.065,7.235,7.905 c2.595,10.106,8.589,20.593,16.546,25.333c14.114,8.408,49.646,8.544,59.843-7.463c3.732-5.858,6.298-13.119,7.207-19.99 l6.121-1.145C354.792,196.902,354.896,190.611,352.954,189.44z M333.962,218.289c-8.475,12.758-38.323,13.303-50.154,6.255 s-18.446-29.254-13.263-37.945c6.496-10.893,54.027-7.748,63.417-3.15C343.352,188.046,341.654,206.711,333.962,218.289z"></path>
			<path class="shadow-obj" style="opacity: 0.4; fill: rgb(77, 77, 77);" d="M352.954,189.44l-6.663-1.065c-1.108-4.031-3.26-7.228-6.66-8.893 c-10.341-5.063-59.485-8.649-73.074,1.052c-6.018,2.976-6.858,5.047-10.558,5.047v9.691c0,0,3.327-1.065,7.235,7.905 c2.595,10.106,8.589,20.593,16.546,25.333c14.114,8.408,49.646,8.544,59.843-7.463c3.732-5.858,6.298-13.119,7.207-19.99 l6.121-1.145C354.792,196.902,354.896,190.611,352.954,189.44z M333.962,218.289c-8.475,12.758-38.323,13.303-50.154,6.255 s-18.446-29.254-13.263-37.945c6.496-10.893,54.027-7.748,63.417-3.15C343.352,188.046,341.654,206.711,333.962,218.289z"></path>
		</g>
	</g></g>
	</g>
	<desc>Avatar generated from Hexatar.com - created with Snap</desc><text transform="matrix(1 0 0 1 0 528)" font-size="12">Avatar generated from Hexatar.com</text></svg>