<svg width="512" height="512" id="hexatar-preview" version="1.1" xmlns="http://www.w3.org/2000/svg" xmlns:xlink="http://www.w3.org/1999/xlink" x="0px" y="0px" viewBox="0 0 512 512" style="enable-background:new 0 0 512 512;" xml:space="preserve">
    <g id="hexatar-background"><g class="hexatar-base">
		<rect class="col-obj" x="-0.003" y="0.002" style="fill: rgb(0, 188, 173);" width="512" height="512"></rect>
		<path class="shadow-obj" style="opacity: 0.9; fill: rgb(0, 137, 126);" d="M255.997,191.992c-35.295,0-64.01,28.715-64.01,64.01 s28.715,64.01,64.01,64.01c35.295,0,64.01-28.715,64.01-64.01S291.293,191.992,255.997,191.992z M255.997,300.011 c-24.267,0-44.01-19.743-44.01-44.01c0-24.267,19.743-44.01,44.01-44.01s44.01,19.743,44.01,44.01 C300.007,280.268,280.264,300.011,255.997,300.011z M-0.003,383.826v39.952c11.398,17.314,24.629,33.602,39.625,48.599 c14.996,14.996,31.284,28.228,48.598,39.625h39.952c-27.181-13.605-52.289-31.647-74.408-53.767 C31.645,436.115,13.602,411.007-0.003,383.826z M128.174,0.002H88.221C70.907,11.4,54.619,24.631,39.623,39.627 C24.626,54.624,11.395,70.912-0.003,88.226v39.952c13.605-27.181,31.648-52.289,53.767-74.409 C75.884,31.65,100.992,13.607,128.174,0.002z M255.997,118.427c-75.859,0-137.574,61.716-137.574,137.575 s61.715,137.574,137.574,137.574s137.575-61.715,137.575-137.574S331.856,118.427,255.997,118.427z M255.997,373.576 c-64.831,0-117.574-52.743-117.574-117.574c0-64.831,52.744-117.575,117.574-117.575s117.575,52.744,117.575,117.575 C373.572,320.833,320.828,373.576,255.997,373.576z M472.373,39.627C457.376,24.631,441.088,11.4,423.774,0.002h-39.952 c27.181,13.605,52.289,31.648,74.409,53.767c22.12,22.119,40.163,47.227,53.767,74.409V88.225 C500.6,70.911,487.369,54.623,472.373,39.627z M383.823,512.002h39.951c17.314-11.398,33.602-24.629,48.599-39.625 c14.996-14.996,28.227-31.284,39.625-48.598v-39.953c-13.605,27.181-31.648,52.289-53.767,74.409 C436.111,480.354,411.004,498.397,383.823,512.002z M477.103,256.002c0-59.06-22.999-114.584-64.76-156.346 c-41.762-41.762-97.286-64.761-156.346-64.761c-59.06,0-114.584,22.999-156.345,64.761 c-41.762,41.761-64.761,97.286-64.761,156.346c0,59.059,22.999,114.583,64.761,156.345 c41.761,41.762,97.286,64.761,156.345,64.761c59.06,0,114.584-22.999,156.346-64.761 C454.104,370.587,477.103,315.061,477.103,256.002z M255.997,457.108c-110.89,0-201.106-90.216-201.106-201.106 c0-110.891,90.216-201.106,201.106-201.106s201.106,90.216,201.106,201.106C457.103,366.892,366.887,457.108,255.997,457.108z"></path>
	</g></g>
	<g id="hexatar-hair-rear"></g>
	<g id="hexatar-bodies">
		<g id="hexatar-body">
			<polygon class="col-obj" style="fill: rgb(221, 161, 105);" points="380.515,465 301,451 301,334 211,334 211,451 131.636,465 94.115,512   418.035,512 "></polygon>
			<polygon class="shadow-obj" style="fill: rgb(212, 135, 63);" points="380.541,465 301,451 301,334 256,334 256,512 418.062,512 "></polygon>
			<polygon id="hexatar-neck-control" class="shadow-obj-2x" style="opacity: 0.5; fill: rgb(183, 110, 41);" points="301.054,387.482 255.998,427.693 210.942,384.615  210.942,333.485 301.054,333.485 "></polygon>
		</g>
		<g id="hexatar-clothes"><g class="hexatar-base">
		<path class="shadow-obj-2x" style="fill: rgb(89, 85, 0);" d="M346.448,403.978h-45.425v39.381h59.934v-24.872 C360.957,410.474,354.461,403.978,346.448,403.978z M151.031,418.935v24.424h59.94l0.001-39.381l-44.985,0.001 C157.727,403.979,151.031,410.675,151.031,418.935z"></path>
		<polygon class="static-obj" style="fill:#666666;" points="383.147,464.994 315.28,435.317 256,450.573 196.75,435.317  129.466,462.994 92.159,511.994 258.323,511.994 420.454,511.994"></polygon>
		<polygon class="white-obj" style="fill:#FFFFFF;" points="187.185,456.112 326.253,456.112 326.285,443.359 301.023,413.648  301.023,428.094 210.971,427.889 211.014,413.648 187.426,443.359"></polygon>
		<path class="col-obj" style="fill: rgb(191, 183, 0);" d="M147.403,455.083l-35.16,9.912l-37.084,47h131.175l-14.054-27.832l14.054-13.916 c0-30.157-25.145-52.086-55.302-52.086L151,432.343L147.403,455.083z M399.755,464.994l-35.376-9.595L361,432.343l0-14.182 c-30.157,0-54.605,21.929-54.605,52.086l14.054,13.916l-14.054,27.832h130.444L399.755,464.994z"></path>
		<path class="shadow-obj" style="opacity: 0.4; fill: rgb(140, 134, 0);" d="M399.532,464.994L388.811,512l48.028-0.006L399.532,464.994z M75.159,511.994L123.836,512l-11.37-47.006L75.159,511.994z M361,418.16c-30.157,0-54.605,21.929-54.605,52.086l14.054,13.916 c0,0,16.598-17.82,43.93-28.764L361,432.343L361,418.16z"></path>
	</g></g>
	</g>
	<g id="hexatar-faces">
		<g id="hexatar-ears"><g class="hexatar-base">
		<g class="hexatar-ears-right"> 	<polygon class="col-obj" style="fill: rgb(221, 161, 105);" points="172.639,157.705 172.639,249.447 127.687,249.447 109.255,204.2  127.687,157.705"></polygon> 	<polygon class="shadow-obj" style="fill: rgb(212, 135, 63);" points="137.955,225.213 129.261,203.576 137.955,181.94 172.639,181.94  172.639,225.213"></polygon>
		</g>
		<g class="hexatar-ears-left"> 	<polygon class="shadow-obj" style="fill: rgb(212, 135, 63);" points="339.621,249.447 339.621,157.705 382.976,157.705 401.408,204.2  382.976,249.447"></polygon> 	<polygon class="shadow-obj-2x" style="fill: rgb(183, 110, 41);" points="372.708,181.94 381.402,204.823 372.708,225.213 339.621,225.213  339.621,181.94"></polygon>
		</g>
	</g></g>
		<g id="hexatar-face"><g class="hexatar-base">
		<polygon class="col-obj" style="fill: rgb(221, 161, 105);" points="256.005,7.17 153.605,71.355 153.605,352.105 216.444,386.05  296.385,386.05 358.404,352.105 358.404,71.355"></polygon>
		<polygon class="shadow-obj" style="fill: rgb(212, 135, 63);" points="256.006,7.17 256.005,386.05 296.385,386.05 358.404,352.105  358.405,71.355"></polygon>
	</g></g>
		<g id="hexatar-mouth"><g class="hexatar-base">
		<polygon class="col-obj" style="fill: rgb(160, 109, 60);" points="223.302,314.077 289.375,314.077 279.556,338.995 233.121,338.995"></polygon>
		<polygon class="shadow-obj" style="fill: rgb(123, 84, 46);" points="280.773,302.769 261.858,302.769 256.339,311.236 250.819,302.769  231.904,302.769 219.196,314.077 293.481,314.077"></polygon>
	</g></g>
		<g id="hexatar-beard"></g>
		<g id="hexatar-mustache"><g class="hexatar-base">
		<path class="col-obj" style="fill: rgb(104, 104, 104);" d="M300.223,292.003c-1.856-8.997-3.464-12.882-6.954-14.518 s-31.103-6.466-36.266-11.451l1,15.949C258.004,281.983,293.901,285.255,300.223,292.003z M250.513,363.271 c2.116,4.798,8.923,4.798,11.039,0l6.499-14.738h-24.036L250.513,363.271z M255.004,266.035 c-2.073,3.539-32.776,9.815-36.266,11.451s-5.098,5.521-6.954,14.518c6.323-6.748,42.22-10.019,42.22-10.019L255.004,266.035z"></path>
		<path class="shadow-obj" style="opacity: 0.4; fill: rgb(78, 78, 78);" d="M300.223,292.003c-1.856-8.997-3.464-12.882-6.954-14.518 s-31.103-6.466-36.266-11.451l1,15.949C258.004,281.983,293.901,285.255,300.223,292.003z M256,366.867 c2.242,0.012,4.489-1.186,5.552-3.596l6.499-14.738H256V366.867z"></path>
	</g></g>
		<g id="hexatar-nose"><g class="hexatar-base">
		<polygon class="shadow-obj" style="fill: rgb(212, 135, 63);" points="267.646,179.801 244.355,179.801 238.358,225.092 219.412,240.431  223.454,256.052 249.96,266.197 261.621,266.197 289.779,256.052 292.589,240.431 273.643,225.092"></polygon>
		<polygon class="shadow-obj-2x" style="fill: rgb(183, 110, 41);" points="267.646,179.801 256.001,179.801 256.001,266.197 261.621,266.197  289.779,256.052 292.589,240.431 273.643,225.092"></polygon>
	</g></g>
		<g id="hexatar-eyeGroup">
			<g id="hexatar-eye"><g class="hexatar-base">
		<g class="hexatar-eye-right">
			<path class="white-obj" style="fill:#FFFFFF;" d="M231.23,202.269c0,0-2.541-10.22-3.353-11.487 c-17.807-4.397-36.478,0.708-37.813,1.264c-1.335,0.556-3.938,4.65-3.938,4.65s9.874,6.452,24.933,6.452 c15.059,0,17.752-1.099,17.752-1.099S229.801,203.423,231.23,202.269z"></path>
			<path class="shadow-obj" style="opacity: 0.3; fill: rgb(0, 0, 0);" d="M222.049,193.384c0.055-1.111-0.085-2.185-0.377-3.198 l-6.566-1.799l-11.987,0.925c-0.379,0.965-0.617,2.003-0.672,3.095c-0.27,5.413,3.899,10.019,9.312,10.289 C217.173,202.966,221.78,198.797,222.049,193.384z"></path>
			<circle class="col-obj" style="fill: rgb(17, 17, 17);" cx="212.56" cy="193.082" r="4.588"></circle>
			<circle class="white-obj" style="fill:#FFFFFF;" cx="208.351" cy="195.851" r="2.854"></circle>
			<path class="hair-col" style="fill: rgb(66, 66, 66);" d="M229.646,190.345c-16.498-3.85-31.796-1.94-39.838,0.65 c-2.876,3.854-3.681,5.701-3.681,5.701l3.898-3.898c0,0,18.672-6.249,37.909-1.302c0.66,2.748,2.724,9.819,2.724,9.819 S229.82,193.151,229.646,190.345z"></path>
			<path class="skin-col" style="fill: rgb(183, 110, 41);" d="M230.65,188.957c0,0-18.546-10.102-41.812-0.561 C213.313,182.318,230.65,188.957,230.65,188.957z"></path>
		</g>
		<g class="hexatar-eye-left">
			<path class="white-obj" style="fill:#FFFFFF;" d="M281.823,202.269c0,0,2.541-10.22,3.353-11.487 c17.807-4.397,36.478,0.708,37.813,1.264c1.335,0.556,3.938,4.65,3.938,4.65s-9.874,6.452-24.933,6.452 s-17.752-1.099-17.752-1.099S283.252,203.423,281.823,202.269z"></path>
			<path class="shadow-obj" style="opacity: 0.3; fill: rgb(0, 0, 0);" d="M291.004,193.384c-0.055-1.111,0.085-2.185,0.376-3.198 l6.566-1.799l11.987,0.925c0.379,0.965,0.617,2.003,0.672,3.095c0.27,5.413-3.899,10.019-9.312,10.289 C295.88,202.966,291.274,198.797,291.004,193.384z"></path>
			<circle class="col-obj" style="fill: rgb(17, 17, 17);" cx="300.493" cy="193.082" r="4.588"></circle>
			<circle class="white-obj" style="fill:#FFFFFF;" cx="296.751" cy="195.851" r="2.854"></circle>
			<path class="hair-col-2x" style="fill: rgb(40, 40, 40);" d="M282.397,201.315c0,0,2.064-7.071,2.724-9.819 c19.236-4.946,37.909,1.302,37.909,1.302l3.898,3.898c0,0-0.805-1.847-3.681-5.701c-8.042-2.59-23.341-4.5-39.838-0.65 C283.233,193.151,282.397,201.315,282.397,201.315z"></path>
			<path class="skin-col-2x" style="fill: rgb(141, 85, 32);" d="M324.215,188.396c-23.266-9.541-41.812,0.561-41.812,0.561 S299.74,182.318,324.215,188.396z"></path>
		</g>
	</g></g>
			<g id="hexatar-eyebrows"><g class="hexatar-base">
		<g class="hexatar-eyebrows-right"> 	<path class="col-obj" style="fill: rgb(66, 66, 66);" d="M191.416,162.211l-13.261,14.976l11.872-5.504l41.908,3.466l1.893-9.194 L191.416,162.211z M235.683,167.818l-2.537,7.581l2.751,0.159l4.422-7.031L235.683,167.818z"></path>
		</g>
		<g class="hexatar-eyebrows-left"> 	<path class="col-obj" style="fill: rgb(66, 66, 66);" d="M272.368,168.527l4.422,7.031l2.751-0.159l-2.537-7.581L272.368,168.527z M321.347,162.211l-42.412,3.744l1.893,9.194l41.908-3.466l11.872,5.504L321.347,162.211z"></path> 	<path class="shadow-obj" style="opacity: 0.4; fill: rgb(40, 40, 40);" d="M272.368,168.527l4.422,7.031l2.751-0.159l-2.537-7.581L272.368,168.527z M321.347,162.211l-42.412,3.744l1.893,9.194l41.908-3.466l11.872,5.504L321.347,162.211z"></path>
		</g>
	</g></g>	
		</g>
		<g id="hexatar-hair-front"><g class="element-front">
			<polygon class="col-obj" style="fill: rgb(66, 66, 66);" points="256.211,6.901 153.602,71.356 153.606,113.061 165.332,104.843  256.211,104.763 339.49,76.226 339.49,76.046 358.402,71.356 358.403,71.356"></polygon>
			<path class="shadow-obj" style="opacity: 0.4; fill: rgb(40, 40, 40);" d="M153.606,113.061l-0.004,70.603h18.913l0-78.821h-7.182L153.606,113.061z M256.211,6.901v97.862l83.279-28.537v107.438h18.913l0-112.308L256.211,6.901z"></path>
		</g></g>
		<g id="hexatar-hat"></g>
		<g id="hexatar-eyeglasses"><g class="hexatar-base">
		<g class="hexatar-eyeglasses-right">
			<path class="col-obj" style="fill: rgb(102, 102, 102);" d="M246.151,176.625c0,0,0.002,0.007,0.003,0.008 c-6.96-3.677-35.487-5.006-50.451-4.061c-11.019,0.696-19.649,3.782-19.649,3.782c-3.092,1.213-6.576,5.094-6.576,7.203v16.218 c0,2.324,1.366,4.426,3.489,5.37c3.2,1.423,7.792,3.354,10.168,3.84c8.834,2.976,52.772,1.619,58.172-3.211 c3.3-2.951,5.251-9.902,6.043-16.927c-0.001,0.018-0.001,0.036-0.002,0.054c2.157-3.853,8.638-3.677,8.638-3.677v-6.819 C255.986,178.404,251.015,178.404,246.151,176.625z M236.227,203.407c-4.5,4.025-40.945,5.155-48.306,2.676 c-7.674-2.585-8.814-13.988-8.402-21.821c0.323-6.144,2.867-7.883,18.874-8.893c14.131-0.892,42.862,0.647,43.128,4.712 C242.023,187.734,240.429,199.649,236.227,203.407z"></path>
		</g>
		<g class="hexatar-eyeglasses-left">
			<path class="col-obj" style="fill: rgb(102, 102, 102);" d="M255.947,178.404v6.819c0,0,6.481-0.176,8.638,3.677 c-0.001-0.018-0.001-0.036-0.002-0.054c0.792,7.026,2.743,13.976,6.043,16.927c5.4,4.83,49.338,6.187,58.172,3.211 c2.376-0.485,6.968-2.417,10.168-3.84c2.123-0.944,3.489-3.046,3.489-5.37v-16.218c0-2.109-3.484-5.99-6.576-7.203 c0,0-8.631-3.086-19.649-3.782c-14.964-0.945-43.491,0.385-50.451,4.061c0-0.001,0.003-0.008,0.003-0.008 C260.917,178.404,255.947,178.404,255.947,178.404z M270.411,180.08c0.266-4.064,28.998-5.604,43.128-4.712 c16.008,1.011,18.551,2.749,18.874,8.893c0.412,7.833-0.728,19.236-8.402,21.821c-7.361,2.48-43.806,1.349-48.306-2.676 C271.503,199.649,269.91,187.734,270.411,180.08z"></path>
			<path class="shadow-obj" style="opacity: 0.4; fill: rgb(77, 77, 77);" d="M255.947,178.404v6.819c0,0,6.481-0.176,8.638,3.677 c-0.001-0.018-0.001-0.036-0.002-0.054c0.792,7.026,2.743,13.976,6.043,16.927c5.4,4.83,49.338,6.187,58.172,3.211 c2.376-0.485,6.968-2.417,10.168-3.84c2.123-0.944,3.489-3.046,3.489-5.37v-16.218c0-2.109-3.484-5.99-6.576-7.203 c0,0-8.631-3.086-19.649-3.782c-14.964-0.945-43.491,0.385-50.451,4.061c0-0.001,0.003-0.008,0.003-0.008 C260.917,178.404,255.947,178.404,255.947,178.404z M270.411,180.08c0.266-4.064,28.998-5.604,43.128-4.712 c16.008,1.011,18.551,2.749,18.874,8.893c0.412,7.833-0.728,19.236-8.402,21.821c-7.361,2.48-43.806,1.349-48.306-2.676 C271.503,199.649,269.91,187.734,270.411,180.08z"></path>
		</g>
	</g></g>
	</g>
	<desc>Avatar generated from Hexatar.com - created with Snap</desc><text transform="matrix(1 0 0 1 0 528)" font-size="12">Avatar generated from Hexatar.com</text></svg>