<svg width="512" height="512" id="hexatar-preview" version="1.1" xmlns="http://www.w3.org/2000/svg" xmlns:xlink="http://www.w3.org/1999/xlink" x="0px" y="0px" viewBox="0 0 512 512" style="enable-background:new 0 0 512 512;" xml:space="preserve">
    <g id="hexatar-background"><g class="hexatar-base">
		<rect class="col-obj" x="-0.003" y="0.002" style="fill: rgb(200, 168, 226);" width="512" height="512"></rect>
		<rect class="shadow-obj" x="255.946" y="0.002" style="opacity: 0.8; fill: rgb(176, 130, 213);" width="257.263" height="512"></rect>
	</g></g>
	<g id="hexatar-hair-rear"><g class="element-rear">
		<path class="col-obj" style="fill: rgb(70, 11, 124);" d="M417.101,237.227c12.285-4.728,20.804-15.014,20.804-26.949 c0-13.191-10.405-24.368-24.8-28.252c0.014-0.012,0.027-0.025,0.042-0.038h-3.633c0.366-1.674,0.566-3.414,0.566-5.203 c0-12.853-9.978-23.273-22.286-23.273c-4.403,0-8.504,1.339-11.96,3.64c-2.731-9.629-11.26-16.656-21.367-16.656 c-12.308,0-22.286,10.42-22.286,23.273c0,7.382,3.295,13.956,8.428,18.219H163.613c5.133-4.264,8.428-10.838,8.428-18.219 c0-12.853-9.978-23.273-22.286-23.273c-10.106,0-18.636,7.027-21.367,16.656c-3.456-2.301-7.557-3.64-11.96-3.64 c-12.308,0-22.286,10.42-22.286,23.273c0,2.035,0.252,4.008,0.721,5.888c-13.271,4.374-22.655,15.079-22.655,27.604 c0,11.935,8.519,22.221,20.804,26.949c-8.634,5.429-14.212,14.006-14.212,23.662c0,15.349,14.083,27.977,32.155,29.553 c-8.195,5.448-13.445,13.797-13.445,23.164c0,13.648,11.138,25.139,26.311,28.627c-0.846,2.528-1.308,5.188-1.308,7.938 c0,16.414,16.106,29.721,35.973,29.721c7.107,0,13.726-1.71,19.305-4.648c3.845,12.995,18.024,22.64,34.937,22.64 c8.869,0,16.983-2.657,23.255-7.053c6.272,4.396,14.386,7.053,23.255,7.053c9.514,0,18.159-3.057,24.592-8.04 c6.433,4.983,15.078,8.04,24.592,8.04c15.325,0,28.404-7.921,33.587-19.076c3.063,0.701,6.286,1.083,9.618,1.083 c19.867,0,35.973-13.306,35.973-29.721c0-2.751-0.462-5.411-1.308-7.938c15.173-3.489,26.311-14.98,26.311-28.627 c0-9.367-5.25-17.716-13.445-23.164c18.072-1.575,32.155-14.204,32.155-29.553C431.313,251.233,425.735,242.656,417.101,237.227z"></path>
		<path class="shadow-obj" style="opacity: 0.4; fill: rgb(44, 7, 77);" d="M417.101,237.227c12.285-4.728,20.804-15.014,20.804-26.949 c0-13.191-10.405-24.368-24.8-28.252c0.014-0.012,0.027-0.025,0.042-0.038h-3.633c0.366-1.674,0.566-3.414,0.566-5.203 c0-12.853-9.978-23.273-22.286-23.273c-4.403,0-8.504,1.339-11.96,3.64c-2.731-9.629-11.26-16.656-21.367-16.656 c-12.308,0-22.286,10.42-22.286,23.273c0,7.382,3.295,13.956,8.428,18.219h-84.587v215.777c1.059,0.078,2.132,0.119,3.216,0.119 c9.514,0,18.159-3.057,24.592-8.04c6.433,4.983,15.078,8.04,24.592,8.04c15.325,0,28.404-7.921,33.587-19.076 c3.063,0.701,6.286,1.083,9.618,1.083c19.867,0,35.973-13.306,35.973-29.721c0-2.751-0.462-5.411-1.308-7.938 c15.173-3.489,26.311-14.98,26.311-28.627c0-9.367-5.25-17.716-13.445-23.164c18.072-1.575,32.155-14.204,32.155-29.553 C431.313,251.233,425.735,242.656,417.101,237.227z"></path>
		<g class="hair-ext" style="display: block;">
			<path class="col-obj" style="fill: rgb(70, 11, 124);" d="M424.276,237.227c12.829-4.728,21.725-15.014,21.725-26.949 c0-13.191-10.865-24.368-25.898-28.252c0.015-0.012,0.029-0.025,0.043-0.038c6.431-5.334,10.389-12.551,10.389-20.505 c0-11.892-8.83-22.147-21.583-26.899c3.415-4.477,5.382-9.723,5.382-15.334c0-14.662-13.423-26.835-31.074-29.269 c1.225-2.934,3.388-7.065,3.388-10.324c0-14.15-13.993-24.983-30.732-27.98c-1.871-15.031-17.891-26.774-37.381-26.774 c-3.133,0-6.175,0.308-9.084,0.88c-4.388-12.562-18.929-21.79-36.202-21.79c-6.601,0-11.593,0.186-16.984,2.552 c-5.391-2.366-12.799-2.552-19.4-2.552c-17.274,0-31.815,9.227-36.202,21.79c-2.91-0.572-5.951-0.88-9.084-0.88 c-19.49,0-35.51,11.743-37.381,26.774c-16.739,2.998-29.242,14.829-29.242,28.979c0,3.258,0.672,6.391,1.897,9.324 c-17.651,2.434-31.074,14.608-31.074,29.269c0,5.61,1.967,10.857,5.382,15.334c-12.753,4.751-21.583,15.007-21.583,26.899 c0,7.954,3.958,15.171,10.389,20.505c0.015,0.012,0.029,0.025,0.043,0.038c-15.033,3.884-25.898,15.061-25.898,28.252 c0,11.935,8.896,22.221,21.725,26.949c-9.017,5.429-14.841,14.006-14.841,23.662c0,15.349,14.707,27.977,33.579,29.553 c-8.558,5.448-14.04,13.797-14.04,23.164c0,13.648,11.631,25.139,27.476,28.627c-0.884,2.528-1.366,5.188-1.366,7.938 c0,16.414,16.819,29.721,37.566,29.721c7.421,0,14.334-1.71,20.16-4.648c4.016,12.995,18.823,22.64,36.484,22.64 c9.262,0,17.735-2.657,24.284-7.053c6.549,4.396,15.023,7.053,24.284,7.053c9.935,0,18.963-3.057,25.681-8.04 c6.718,4.983,15.746,8.04,25.681,8.04c16.004,0,29.662-7.921,35.074-19.076c3.198,0.701,6.564,1.083,10.044,1.083 c20.747,0,37.566-13.306,37.566-29.721c0-2.751-0.482-5.411-1.366-7.938c15.844-3.489,27.476-14.98,27.476-28.627 c0-9.367-5.482-17.716-14.04-23.164c18.872-1.575,33.579-14.204,33.579-29.553C439.118,251.233,433.293,242.656,424.276,237.227z"></path>
			<path class="shadow-obj" style="opacity: 0.4; fill: rgb(44, 7, 77);" d="M424.276,237.227c12.829-4.728,21.725-15.014,21.725-26.949 c0-13.191-10.865-24.368-25.898-28.252c0.015-0.012,0.029-0.025,0.043-0.038c6.431-5.334,10.389-12.551,10.389-20.505 c0-11.892-8.83-22.147-21.583-26.899c3.415-4.477,5.382-9.723,5.382-15.334c0-14.662-13.423-26.835-31.074-29.269 c1.225-2.934,3.388-7.065,3.388-10.324c0-14.15-13.993-24.983-30.732-27.98c-1.871-15.031-17.891-26.774-37.381-26.774 c-3.133,0-6.175,0.308-9.084,0.88c-4.388-12.562-18.929-21.79-36.202-21.79c-6.424,0-11.547,0.177-16.984,2.552l-0.766,175.442 v215.729c1.291,0.106,2.598,0.167,3.925,0.167c9.935,0,18.963-3.057,25.681-8.04c6.718,4.983,15.746,8.04,25.681,8.04 c16.004,0,29.662-7.921,35.074-19.076c3.198,0.701,6.564,1.083,10.044,1.083c20.747,0,37.566-13.306,37.566-29.721 c0-2.751-0.482-5.411-1.366-7.938c15.844-3.489,27.476-14.98,27.476-28.627c0-9.367-5.482-17.716-14.04-23.164 c18.872-1.575,33.579-14.204,33.579-29.553C439.118,251.233,433.293,242.656,424.276,237.227z"></path>
		</g>
	</g></g>
	<g id="hexatar-bodies">
		<g id="hexatar-body">
			<polygon class="col-obj" style="fill: rgb(221, 161, 105);" points="380.515,465 301,451 301,334 211,334 211,451 131.636,465 94.115,512   418.035,512 "></polygon>
			<polygon class="shadow-obj" style="fill: rgb(212, 135, 63);" points="380.541,465 301,451 301,334 256,334 256,512 418.062,512 "></polygon>
			<polygon id="hexatar-neck-control" class="shadow-obj-2x" style="opacity: 0.5; fill: rgb(183, 110, 41);" points="301.054,387.482 255.998,427.693 210.942,384.615  210.942,333.485 301.054,333.485 "></polygon>
		</g>
		<g id="hexatar-clothes"><g class="hexatar-base">
		<polygon class="col-obj" style="fill: rgb(255, 255, 255);" points="397.181,484.331 350.776,484.331 347.861,458.574 343.649,457.82  346.649,484.331 165.349,484.331 168.349,457.82 164.161,458.365 161.223,484.331 113.983,484.331 92.159,511.989  419.839,511.989"></polygon>
	</g></g>
	</g>
	<g id="hexatar-faces">
		<g id="hexatar-ears"><g class="hexatar-base">
		<g class="hexatar-ears-right"> 	<polygon class="col-obj" style="fill: rgb(221, 161, 105);" points="172.062,168.76 172.062,238.392 127.687,238.392 109.255,203.576  127.687,168.76"></polygon> 	<polygon class="shadow-obj" style="fill: rgb(212, 135, 63);" points="137.955,219.998 129.261,203.576 137.955,187.154 172.062,187.154  172.062,219.998"></polygon>
		</g>
		<g class="hexatar-ears-left"> 	<polygon class="shadow-obj" style="fill: rgb(212, 135, 63);" points="340.163,238.392 340.163,168.76 382.976,168.76 401.408,203.576  382.976,238.392"></polygon> 	<polygon class="shadow-obj-2x" style="fill: rgb(183, 110, 41);" points="372.708,187.154 381.402,203.576 372.708,219.998  340.163,219.998 340.163,187.154"></polygon>
		</g>
	</g></g>
		<g id="hexatar-face"><g class="hexatar-base">
		<path class="col-obj" style="fill: rgb(221, 161, 105);" d="M255.986,7.171l-102.4,64.185l0,206.873c0,26.023,11.707,50.665,31.879,67.104 l0,0l6.863,9.026c15.183,19.968,38.825,31.692,63.91,31.692h0c25.262,0,49.051-11.89,64.215-32.095l6.471-8.623l0.015-0.013 c19.915-16.445,31.447-40.923,31.447-66.75l0-207.215L255.986,7.171z"></path>
		<path class="shadow-obj" style="fill: rgb(212, 135, 63);" d="M255.986,7.171l-0.001,378.88h0.252c25.262,0,49.051-11.89,64.215-32.096 l6.471-8.623l0.015-0.013c19.915-16.445,31.447-40.923,31.447-66.75l0-207.215L255.986,7.171z"></path>
	</g></g>
		<g id="hexatar-mouth"><g class="hexatar-base">
		<path class="col-obj" style="fill: rgb(225, 83, 76);" d="M220.507,313.084h71.666l-13.841,16.633c-2.739,3.291-6.799,5.195-11.081,5.195 h-21.822c-4.282,0-8.342-1.904-11.081-5.195L220.507,313.084z"></path>
		<path class="shadow-obj" style="fill: rgb(214, 44, 36);" d="M257.748,304.374l-1.408,2.006l-1.408-2.007 c-2.98-4.248-8.134-6.408-13.253-5.555l-6.435,1.073c-2.481,0.414-4.764,1.608-6.519,3.41l-9.528,9.783h74.285l-10.247-10.059 c-1.73-1.698-3.94-2.822-6.33-3.221l-5.903-0.985C265.883,297.965,260.728,300.126,257.748,304.374z"></path>
	</g></g>
		<g id="hexatar-beard"></g>
		<g id="hexatar-mustache"></g>
		<g id="hexatar-nose"><g class="hexatar-base">
		<polygon class="shadow-obj" style="fill: rgb(212, 135, 63);" points="273.806,239.281 262.701,172.435 249.3,172.435 238.196,239.281  232.482,239.281 227.055,255.459 233.14,256.886 237.108,254.618 250.825,264.281 260.963,264.281 274.253,255.561  278.008,257.916 284.946,255.459 279.519,239.281"></polygon>
		<polygon class="shadow-obj-2x" style="fill: rgb(183, 110, 41);" points="273.806,239.281 262.701,172.435 256.001,172.435 256.001,264.281  260.963,264.281 274.253,255.561 278.008,257.916 284.946,255.459 279.519,239.281"></polygon>
	</g></g>
		<g id="hexatar-eyeGroup">
			<g id="hexatar-eye"><g class="hexatar-base">
		<g class="hexatar-eye-right">
			<path class="white-obj" style="fill:#FFFFFF;" d="M227.99,197.217c0,0-2.58-5.186-8.324-6.868c-17.218-1.732-31.942,0-31.942,0 s6.967,11.753,18.431,12.083c11.464,0.33,19.778-3.719,19.778-3.719s1.337,0.721,2.057,0.25S227.99,197.217,227.99,197.217z"></path>
			<path class="shadow-obj" style="opacity: 0.3; fill: rgb(0, 0, 0);" d="M216.969,191.291c-0.14-0.607-0.354-1.177-0.618-1.712 c-5.883-0.811-10.724-0.278-14.396,0.659c-0.546,1.416-0.689,3.004-0.322,4.594c0.978,4.235,5.203,6.875,9.438,5.898 C215.306,199.751,217.947,195.526,216.969,191.291z"></path>
			<circle class="col-obj" style="fill: rgb(17, 17, 17);" cx="209.301" cy="193.061" r="4.073"></circle>
			<circle class="white-obj" style="fill:#FFFFFF;" cx="206.756" cy="195.874" r="2.001"></circle>
			<path class="hair-col" style="fill: rgb(66, 66, 66);" d="M220.261,189.115c-8.812-0.547-15.912-0.426-21.209-0.098 c-5.146-0.204-11.566-2.324-13.26-4.764c0.721,3.149,5.048,4.426,5.048,4.426s-7.347-0.21-9.598-2.369 c2.53,5.235,9.786,8.103,9.786,8.103l-3.304-4.063c0,0,18.326-0.114,32.35,0.76c3.459,1.033,7.916,6.108,7.916,6.108 S225.3,191.11,220.261,189.115z"></path>
			<path class="skin-col" style="fill: rgb(183, 110, 41);" d="M228.676,192.731c0,0-2.388-4.883-7.667-7.418 c-11.679,0.168-22.044,2.332-25.489,3.128c2.999-0.379,10.673-1.122,25.177-1.819 C223.775,187.855,228.676,192.731,228.676,192.731z"></path>
		</g>
		<g class="hexatar-eye-left">
			<path class="white-obj" style="fill:#FFFFFF;" d="M286.316,197.217c0,0,2.58-5.186,8.324-6.868c17.218-1.732,31.942,0,31.942,0 s-6.967,11.753-18.431,12.083c-11.464,0.33-19.778-3.719-19.778-3.719s-1.337,0.721-2.057,0.25 C285.596,198.493,286.316,197.217,286.316,197.217z"></path>
			<path class="shadow-obj" style="opacity: 0.3; fill: rgb(0, 0, 0);" d="M297.337,191.291c0.14-0.607,0.354-1.177,0.618-1.712 c5.883-0.811,10.724-0.278,14.396,0.659c0.546,1.416,0.689,3.004,0.322,4.594c-0.978,4.235-5.203,6.875-9.438,5.898 C299,199.751,296.36,195.526,297.337,191.291z"></path>
			<circle class="col-obj" style="fill: rgb(17, 17, 17);" cx="305.005" cy="193.061" r="4.073"></circle>
			<circle class="white-obj" style="fill:#FFFFFF;" cx="307.55" cy="195.874" r="2.001"></circle>
			<path class="hair-col-2x" style="fill: rgb(40, 40, 40);" d="M323.466,188.679c0,0,4.328-1.277,5.048-4.426 c-1.695,2.441-8.206,4.735-13.26,4.764c-5.297-0.328-12.397-0.45-21.209,0.098c-5.039,1.995-7.729,8.103-7.729,8.103 s4.457-5.074,7.916-6.108c14.024-0.873,32.35-0.76,32.35-0.76l-3.304,4.063c0,0,7.256-2.868,9.786-8.103 C330.813,188.469,323.466,188.679,323.466,188.679z"></path>
			<path class="skin-col" style="fill: rgb(183, 110, 41);" d="M318.808,188.446c-3.42-0.792-13.806-2.966-25.511-3.134 c-5.279,2.535-7.667,7.418-7.667,7.418s4.901-4.876,7.979-6.109C308.16,187.321,315.831,188.068,318.808,188.446z"></path>
		</g>
	</g></g>
			<g id="hexatar-eyebrows"><g class="hexatar-base">
		<g class="hexatar-eyebrows-right"> 	<path class="col-obj" style="fill: rgb(66, 66, 66);" d="M178.292,176.866l9.757-1.978c5.936-1.203,12.05-1.238,17.999-0.103l13.76,2.627 c3.654,0.697,7.436-0.009,10.593-1.977h0l0,0c1.343-2.473,0.038-5.553-2.673-6.307l-8.589-2.389 c-5.664-1.576-11.632-1.708-17.36-0.386l-3.187,0.736C191.182,168.797,184.248,172.138,178.292,176.866L178.292,176.866z"></path>
		</g>
		<g class="hexatar-eyebrows-left"> 	<path class="col-obj" style="fill: rgb(66, 66, 66);" d="M334.47,176.866l-9.757-1.978c-5.936-1.203-12.049-1.238-17.999-0.103 l-13.76,2.627c-3.654,0.697-7.436-0.009-10.593-1.977l0,0v0c-1.344-2.473-0.038-5.553,2.673-6.307l8.589-2.389 c5.664-1.576,11.632-1.708,17.36-0.386l3.187,0.736C321.58,168.797,328.515,172.138,334.47,176.866L334.47,176.866z"></path> 	<path class="shadow-obj" style="opacity: 0.4; fill: rgb(40, 40, 40);" d="M334.47,176.866l-9.757-1.978c-5.936-1.203-12.049-1.238-17.999-0.103 l-13.76,2.627c-3.654,0.697-7.436-0.009-10.593-1.977l0,0v0c-1.344-2.473-0.038-5.553,2.673-6.307l8.589-2.389 c5.664-1.576,11.632-1.708,17.36-0.386l3.187,0.736C321.58,168.797,328.515,172.138,334.47,176.866L334.47,176.866z"></path>
		</g>
	</g></g>	
		</g>
		<g id="hexatar-hair-front"><g class="element-front">
			<path class="col-obj" style="fill: rgb(70, 11, 124);" d="M256.214,6.901L153.605,71.357l0,97.612c0,0,81.146-60.951,102.609-87.567 c29.67,59.521,102.192,87.359,102.192,87.359l0-97.404L256.214,6.901z"></path>
			<path class="shadow-obj" style="opacity: 0.4; fill: rgb(44, 7, 77);" d="M256.214,6.901v74.5c29.67,59.521,102.192,87.359,102.192,87.359l0-97.404 L256.214,6.901z"></path>
			<g class="hair-ext" style="display: block;">
				<polyline class="col-obj" style="fill: rgb(70, 11, 124);" points="153.605,168.968 171.107,79.121 256.214,24.649 338.125,80.841  358.406,168.76 366.91,70.06 256.214,6.901 144.118,64.289 153.605,168.968"></polyline>
				<polygon class="shadow-obj" style="opacity: 0.4; fill: rgb(44, 7, 77);" points="256.214,6.901 255.639,7.195 255.639,25.017 256.214,24.649  338.125,80.841 358.406,168.76 366.91,70.06"></polygon>
			</g>
		</g></g>
		<g id="hexatar-hat"></g>
		<g id="hexatar-eyeglasses"></g>
	</g>
	<desc>Avatar generated from Hexatar.com - created with Snap</desc><text transform="matrix(1 0 0 1 0 528)" font-size="12">Avatar generated from Hexatar.com</text></svg>