<svg width="512" height="512" id="hexatar-preview" version="1.1" xmlns="http://www.w3.org/2000/svg" xmlns:xlink="http://www.w3.org/1999/xlink" x="0px" y="0px" viewBox="0 0 512 512" style="enable-background:new 0 0 512 512;" xml:space="preserve">
    <g id="hexatar-background"><g class="hexatar-base">
		<rect class="col-obj" x="-0.003" y="0.002" style="fill: rgb(101, 35, 0);" width="512" height="512"></rect>
		<path class="light-obj" style="opacity: 0.9; fill: rgb(152, 53, 0);" d="M281.14,0.239h-39.041l19.523,249.409L281.14,0.239z M0.236,235.926 v27.461l261.371-13.732L0.236,235.926z M511.76,429.885l-250.13-180.221l250.13,232.994V429.885z M0.236,6.17v55.146 l261.381,188.336L0.236,6.17z M0.236,437.998v55.147l261.376-243.476L0.236,437.998z M261.631,249.664L261.631,249.664 L261.631,249.664L261.631,249.664z M158.761,0.239l102.856,249.409L110.949,0.239H58.828l202.793,249.416L200.614,0.239H158.761z M511.76,16.659L261.636,249.648L464.429,0.239h-52.13L261.636,249.644L364.496,0.239h-41.858l-61.008,249.414l-0.009,0.002 l0.005,0.005h0.005l250.13,136.502v-35.087L261.645,249.664l250.115,69.233V290.72l-250.13-41.065l250.13,13.142v-26.282 l-250.115,13.14l250.115-41.06v-28.177l-250.125,69.237L511.76,148.24v-35.092L261.659,249.636L511.76,69.43V16.659z M0.236,107.01v36.666l261.373,105.977L0.236,177.303v29.445l261.385,42.907l-0.011-0.003L0.236,107.01z M0.236,392.303 L261.617,249.66L0.236,355.644V392.303z M48.51,511.763h54.783l158.324-262.085L153.534,511.763h43.989l64.09-262.02 l-20.507,262.02h41.032l-20.511-262.08l64.104,262.08h43.988L261.631,249.669L419.96,511.763h54.778L261.63,249.665l-0.004,0.004 l-0.005-0.005l0.005,0.014l-0.005,0.005v-0.019h0.008l-0.004-0.005h-0.005L48.51,511.763z M0.236,322.014l261.376-72.354 L0.236,292.571V322.014z M261.612,249.66h0.005h0.005v-0.005L261.612,249.66z"></path>
	</g></g>
	<g id="hexatar-hair-rear"></g>
	<g id="hexatar-bodies">
		<g id="hexatar-body">
			<polygon class="col-obj" style="fill: rgb(245, 208, 195);" points="380.515,465 301,451 301,334 211,334 211,451 131.636,465 94.115,512   418.035,512 "></polygon>
			<polygon class="shadow-obj" style="fill: rgb(238, 174, 151);" points="380.541,465 301,451 301,334 256,334 256,512 418.062,512 "></polygon>
			<polygon id="hexatar-neck-control" class="shadow-obj-2x" style="opacity: 0.5; fill: rgb(231, 140, 107);" points="301.054,387.482 255.998,427.693 210.942,384.615  210.942,333.485 301.054,333.485 "></polygon>
		</g>
		<g id="hexatar-clothes"><g class="hexatar-base">
		<path class="white-obj" style="fill:#FFFFFF;" d="M314.881,511.994H196.874v-35.523c0,0,27.74,14.098,59.004,14.098 s59.004-14.098,59.004-14.098V511.994z"></path>
		<path class="static-obj" style="fill:#E6E6E6;" d="M255.878,496.3c26.818,0,51.14-9.92,59.003-13.479v-6.35 c0,0-27.74,14.099-59.003,14.099c-31.264,0-59.004-14.099-59.004-14.099v6.35C204.737,486.38,229.06,496.3,255.878,496.3z"></path>
		<path class="shadow-obj-2x" style="fill: rgb(34, 21, 0);" d="M329.553,417.167h-28.499v14.956h43.008v-0.447 C344.063,423.663,337.567,417.167,329.553,417.167z M167.935,432.123h43.008v-14.956h-28.052 C174.631,417.167,167.935,423.863,167.935,432.123z"></path>
		<path class="col-obj" style="fill: rgb(136, 85, 0);" d="M168,457.399l-38.757,7.595l-37.084,47h131.175v-80H168V457.399z M382.755,464.994L344,457.399v-25.405h-54.605v80h130.444L382.755,464.994z"></path>
		<path class="shadow-obj" style="opacity: 0.4; fill: rgb(85, 53, 0);" d="M92.159,511.994L140.836,512l-11.37-47.006L92.159,511.994z M383.147,464.994L372.426,512l48.028-0.006L383.147,464.994z"></path>
	</g></g>
	</g>
	<g id="hexatar-faces">
		<g id="hexatar-ears"><g class="hexatar-base">
		<g class="hexatar-ears-right"> 	<polygon class="col-obj" style="fill: rgb(245, 208, 195);" points="172.639,176.555 172.639,243.147 154.47,251.417 138.743,242.769  115.596,187.997 141.602,155.736"></polygon> 	<polygon class="shadow-obj" style="fill: rgb(238, 174, 151);" points="143.639,169.144 127.136,189.615 146.602,235.678 154.893,240.237  172.639,231.856 172.639,188.018"></polygon>
		</g>
		<g class="hexatar-ears-left"> 	<polygon class="shadow-obj" style="fill: rgb(238, 174, 151);" points="339.621,243.147 339.621,176.555 369.839,155.736 395.845,187.997  373.552,240.749 356.971,251.417"></polygon> 	<polygon class="shadow-obj-2x" style="fill: rgb(231, 140, 107);" points="367.874,169.233 339.621,188.383 339.621,232.942 356.246,239.992  365.543,234.011 384.305,189.615"></polygon>
		</g>
	</g></g>
		<g id="hexatar-face"><g class="hexatar-base">
		<polygon class="col-obj" style="fill: rgb(245, 208, 195);" points="256.005,7.17 153.605,71.355 153.605,322.238 242.487,386.05  270.342,386.05 358.404,321.952 358.404,71.355"></polygon>
		<polygon class="shadow-obj" style="fill: rgb(238, 174, 151);" points="256.006,7.17 256.005,386.05 270.343,386.05 358.404,321.952  358.405,71.355"></polygon>
	</g></g>
		<g id="hexatar-mouth"><g class="hexatar-base">
		<polygon class="col-obj" style="fill: rgb(223, 144, 129);" points="223.302,315.222 289.375,315.222 279.556,331.077 233.121,331.077"></polygon>
		<polygon class="shadow-obj" style="fill: rgb(213, 108, 88);" points="277.102,301.457 256.339,310.211 235.575,301.457 219.196,315.495  293.481,315.495"></polygon>
	</g></g>
		<g id="hexatar-beard"></g>
		<g id="hexatar-mustache"></g>
		<g id="hexatar-nose"><g class="hexatar-base">
		<polygon class="shadow-obj" style="fill: rgb(238, 174, 151);" points="270.634,203.211 262.701,175.435 249.3,175.435 241.367,203.211  244.258,242.86 234.669,239.885 229.567,261.916 234.853,262.765 237.383,259.589 245.428,262.727 250.715,267.281  256.001,267.281 261.18,267.281 266.36,262.727 274.298,259.589 276.722,262.765 281.901,261.916 277.333,239.885 267.744,242.86"></polygon>
		<polygon class="shadow-obj-2x" style="fill: rgb(231, 140, 107);" points="270.634,203.211 262.701,175.435 256.001,175.435 256.001,267.281  261.18,267.281 266.36,262.727 274.298,259.589 276.722,262.765 281.901,261.916 277.333,239.885 267.744,242.86"></polygon>
	</g></g>
		<g id="hexatar-eyeGroup">
			<g id="hexatar-eye"><g class="hexatar-base">
		<g class="hexatar-eye-right">
			<path class="white-obj" style="fill:#FFFFFF;" d="M228.334,199.414c0,0,0.659,0.662,1.573,0.286 c0.914-0.376,0.632-1.626-0.697-3.362c-1.329-1.736-7.855-7.925-7.855-7.925h-22.604l-10.944,6.07c0,0,4.271,10.456,20.837,9.252 C225.208,202.53,228.334,199.414,228.334,199.414z"></path>
			<path class="shadow-obj" style="opacity: 0.3; fill: rgb(0, 115, 129);" d="M220.579,191.427c-0.12-1.069-0.402-2.081-0.817-3.015h-18.74 c-0.718,1.612-1.039,3.425-0.828,5.305c0.633,5.629,5.708,9.68,11.337,9.047C217.161,202.132,221.211,197.056,220.579,191.427z"></path>
			<circle class="col-obj" style="fill: rgb(0, 160, 180);" cx="210.386" cy="192.573" r="5.308"></circle>
			<circle class="white-obj" style="fill:#FFFFFF;" cx="206.67" cy="195.834" r="3.301"></circle>
			<path class="hair-col" style="fill: rgb(217, 99, 17);" d="M221.186,189.621c3.431,2.431,6.577,5.433,9.364,9.007 c-1.066-3.792-8.078-9.864-8.434-10.079c-6.505-2.216-14.511-2.359-24.16-0.572c-3.431,1.787-7.148,4.146-11.222,7.077 l12.365-5.504C199.814,189.407,220.615,189.478,221.186,189.621z"></path>
			<path class="skin-col" style="fill: rgb(231, 140, 107);" d="M189.594,202.559c5.504,5.316,26.109,11.196,39.027,1.786 C220.443,209.122,198.929,209.319,189.594,202.559z M228.334,199.414c-8.115,3.535-24.802,4.36-25.875,4.431 C204.532,204.488,223.07,203.734,228.334,199.414z"></path>
		</g>
		<g class="hexatar-eye-left">
			<path class="white-obj" style="fill:#FFFFFF;" d="M285.331,199.414c0,0-0.659,0.662-1.573,0.286 c-0.914-0.376-0.632-1.626,0.697-3.362c1.329-1.736,7.855-7.925,7.855-7.925h22.604l10.944,6.07c0,0-4.271,10.456-20.837,9.252 C288.457,202.53,285.331,199.414,285.331,199.414z"></path>
			<path class="shadow-obj" style="opacity: 0.3; fill: rgb(0, 115, 129);" d="M293.087,191.427c0.12-1.069,0.402-2.081,0.817-3.015h18.74 c0.718,1.612,1.039,3.425,0.828,5.305c-0.633,5.629-5.708,9.68-11.337,9.047C296.505,202.132,292.454,197.056,293.087,191.427z"></path>
			<circle class="col-obj" style="fill: rgb(0, 160, 180);" cx="303.279" cy="192.573" r="5.308"></circle>
			<circle class="white-obj" style="fill:#FFFFFF;" cx="306.995" cy="195.834" r="3.301"></circle>
			<path class="hair-col-2x" style="fill: rgb(170, 77, 13);" d="M314.565,189.55l12.365,5.504c-4.074-2.931-7.79-5.29-11.222-7.077 c-9.649-1.787-17.655-1.644-24.16,0.572c-0.356,0.214-7.368,6.286-8.434,10.079c2.788-3.574,5.933-6.576,9.364-9.007 C293.05,189.478,313.851,189.407,314.565,189.55z"></path>
			<path class="skin-col-2x" style="fill: rgb(224, 106, 63);" d="M311.206,203.845c-1.073-0.071-17.76-0.896-25.875-4.431 C290.595,203.734,309.133,204.488,311.206,203.845z M285.045,204.345c12.918,9.409,33.522,3.53,39.027-1.786 C314.737,209.319,293.222,209.122,285.045,204.345z"></path>
		</g>
	</g></g>
			<g id="hexatar-eyebrows"><g class="hexatar-base">
		<g class="hexatar-eyebrows-right"> 	<polygon class="col-obj" style="fill: rgb(217, 99, 17);" points="178.155,177.187 190.026,171.684 231.935,175.149 233.828,165.955  191.416,162.211"></polygon>
		</g>
		<g class="hexatar-eyebrows-left"> 	<polygon class="col-obj" style="fill: rgb(217, 99, 17);" points="334.608,177.187 322.736,171.684 280.828,175.149 278.935,165.955  321.347,162.211"></polygon> 	<polygon class="shadow-obj" style="opacity: 0.4; fill: rgb(170, 77, 13);" points="334.608,177.187 322.736,171.684 280.828,175.149 278.935,165.955  321.347,162.211"></polygon>
		</g>
	</g></g>	
		</g>
		<g id="hexatar-hair-front"><g class="element-front">
			<polygon class="col-obj" style="fill: rgb(192, 99, 66);" points="256.211,6.901 153.602,71.356 153.602,232.942 172.515,232.942  172.515,139.266 186.685,125.614 186.685,72.492 284.676,107.227 325.319,107.227 325.319,125.614 339.49,139.266  339.49,232.942 358.402,232.942 358.403,71.356"></polygon>
			<polygon class="shadow-obj" style="opacity: 0.4; fill: rgb(155, 79, 52);" points="256.211,6.901 256.211,97.137 284.676,107.227 325.319,107.227  325.319,125.614 339.49,139.266 339.49,232.942 358.402,232.942 358.403,71.356"></polygon>
		</g></g>
		<g id="hexatar-hat"></g>
		<g id="hexatar-eyeglasses"><g class="hexatar-base">
		<g class="hexatar-eyeglasses-right">
			<path class="white-obj" style="opacity:0.5;fill:#FFFFFF;" d="M227.367,224.58c-10.959,7.06-41.607,6.514-49.457-6.266 c-7.125-11.598-8.698-30.296,0-34.901c8.697-4.605,55.725-7.756,61.742,3.156C244.453,195.275,238.325,217.52,227.367,224.58z"></path>
			<path class="col-obj" style="fill: rgb(33, 33, 33);" d="M169.478,195.795c0.14,1.09,0.329,2.308,0.563,3.601 c0.224,1.243,1.298,2.154,2.561,2.159h0c1.538,0.005,2.741-1.315,2.601-2.847c-0.608-6.633,0.995-12.62,5.553-14.832 c8.256-4.007,52.991-6.624,58.66,2.958c1.61,2.72,1.901,6.993,1.141,11.597c-0.296,1.795,1.061,3.436,2.88,3.438 c0.017,0,0.033,0,0.05,0c1.229,0.001,2.361-0.688,2.911-1.788c3.148-6.298,9.583-5.576,9.583-5.576l0.029-8.493 c-3.242-0.011-7.88-1.87-13.311-4.541c-12.049-8.434-57.822-5.447-66.868-1.056c-2.985,1.448-11.683,5.18-11.683,5.18 c-1.705,1.02-1.633,6.533-0.03,9.178L169.478,195.795z"></path>
		</g>
		<g class="hexatar-eyeglasses-left">
			<path class="white-obj" style="opacity:0.5;fill:#FFFFFF;" d="M333.685,218.289c-7.789,12.758-38.222,13.303-49.095,6.255 s-16.953-29.254-12.189-37.945c5.97-10.893,52.654-7.748,61.284-3.15C342.315,188.046,340.754,206.711,333.685,218.289z"></path>
			<path class="col-obj" style="fill: rgb(33, 33, 33);" d="M268.275,201.861h0.274c1.814,0,3.171-1.629,2.886-3.42 c-0.727-4.579-0.407-8.788,1.218-11.492c5.725-9.526,50.368-6.626,58.583-2.569c4.534,2.239,6.092,8.223,5.441,14.838 c-0.151,1.53,1.044,2.859,2.581,2.865l0.049,0c1.263,0.004,2.343-0.899,2.576-2.141c0.242-1.291,0.44-2.508,0.588-3.597 l5.368-0.985c1.621-2.633,1.732-8.146,0.033-9.178c0,0-8.683-3.792-11.657-5.261c-9.046-4.468-55.102-7.759-67.039,0.7 c-5.283,2.589-9.925,4.402-13.167,4.391l-0.029,8.493c0,0,6.355-0.434,9.383,5.568 C265.917,201.17,267.047,201.861,268.275,201.861z"></path>
			<path class="shadow-obj" style="opacity: 0.4; fill: rgb(7, 7, 7);" d="M268.319,201.917c0.084,0,0.169-0.001,0.255-0.002 c1.807-0.013,3.156-1.637,2.87-3.421c-0.738-4.6-0.422-8.831,1.21-11.546c5.725-9.526,50.368-6.626,58.583-2.569 c4.534,2.239,6.092,8.223,5.441,14.838c-0.151,1.53,1.044,2.859,2.581,2.865l0.049,0c1.263,0.004,2.343-0.899,2.576-2.141 c0.242-1.291,0.44-2.508,0.588-3.597l5.368-0.985c1.621-2.633,1.732-8.146,0.033-9.178c0,0-8.683-3.792-11.657-5.261 c-9.046-4.468-55.102-7.759-67.039,0.7c-5.283,2.589-9.925,4.402-13.167,4.391l-0.029,8.493c0,0,6.371-0.437,9.412,5.624 C265.946,201.233,267.085,201.924,268.319,201.917z"></path>
		</g>
	</g></g>
	</g>
	<desc>Avatar generated from Hexatar.com - created with Snap</desc><text transform="matrix(1 0 0 1 0 528)" font-size="12">Avatar generated from Hexatar.com</text></svg>