<svg width="512" height="512" id="hexatar-preview" version="1.1" xmlns="http://www.w3.org/2000/svg" xmlns:xlink="http://www.w3.org/1999/xlink" x="0px" y="0px" viewBox="0 0 512 512" style="enable-background:new 0 0 512 512;" xml:space="preserve">
    <g id="hexatar-background"><g class="hexatar-base">
		<rect class="col-obj" x="-0.003" y="0.002" style="fill: rgb(200, 214, 224);" width="512" height="512"></rect>
		<path class="light-obj" style="opacity: 0.8; fill: rgb(233, 238, 242);" d="M253.725,0.002H89.221l82.252,82.252L253.725,0.002z M258.27,0.002 l82.252,82.252l82.252-82.252H258.27z M85.957,508.87l-85.96-82.521v85.653h251.877l4.124-4.124l-84.525-84.525L85.957,508.87z M511.997,422.778V253.729l-0.925-0.925l-84.525,84.524L511.997,422.778z M260.121,512.002h251.876v-85.654l-85.96,82.521 l-85.515-85.515l-84.525,84.525L260.121,512.002z M-0.003,253.73v169.049l85.45-85.451L0.923,252.804L-0.003,253.73z M169.972,252.804l-84.525,84.524l86.025,86.025l84.525-84.525L169.972,252.804z M255.998,338.829l84.525,84.525l86.025-86.025 l-84.524-84.524L255.998,338.829z M511.997,0.002h-89.223l87.782,84.269l-84.008,84.008l84.525,84.525l0.925-0.925V0.002z M426.548,168.279l-86.025-86.025l-84.525,84.525l86.025,86.025L426.548,168.279z M1.439,84.271L89.221,0.002H-0.003v251.876 l0.926,0.926l84.525-84.525L1.439,84.271z M169.972,252.804l86.025-86.025l-84.525-84.525l-86.025,86.025L169.972,252.804z"></path>
	</g></g>
	<g id="hexatar-hair-rear"></g>
	<g id="hexatar-bodies">
		<g id="hexatar-body">
			<polygon class="col-obj" style="fill:#FCE2E1;" points="380.515,465 301,451 301,334 211,334 211,451 131.636,465 94.115,512   418.035,512 "></polygon>
			<polygon class="shadow-obj" style="fill: rgb(247, 181, 179);" points="380.541,465 301,451 301,334 256,334 256,512 418.062,512 "></polygon>
			<polygon id="hexatar-neck-control" class="shadow-obj-2x" style="opacity: 0.5; fill: rgb(242, 136, 133);" points="301.054,387.482 255.998,427.693 210.942,384.615  210.942,333.485 301.054,333.485 "></polygon>
		</g>
		<g id="hexatar-clothes"><g class="hexatar-base">
		<polygon class="col-obj" style="fill: rgb(34, 34, 34);" points="382.755,464.994 315.28,435.317 256.02,449.035 196.75,435.317  129.243,464.994 92.159,511.994 419.839,511.994"></polygon>
		<path class="shadow-obj" style="opacity: 0.4; fill: rgb(8, 8, 8);" d="M92.159,511.994L140.836,512l-11.37-47.006L92.159,511.994z M383.147,464.994L372.426,512l48.028-0.006L383.147,464.994z"></path>
		<polygon class="static-obj" style="fill:#EC373D;" points="271.123,511.994 261.805,473.204 268.504,464.719 255.998,448.879  243.493,464.719 250.192,473.204 240.874,511.994"></polygon>
		<polygon class="white-obj" style="fill:#FFFFFF;" points="229.079,484.336 256.02,449.035 284.359,484.336 315.28,435.317  301.023,411.456 301.023,425.901 256.019,449.001 210.971,425.697 211.014,411.456 196.75,435.317"></polygon>
	</g></g>
	</g>
	<g id="hexatar-faces">
		<g id="hexatar-ears"><g class="hexatar-base">
		<g class="hexatar-ears-right"> 	<polygon class="col-obj" style="fill:#FCE2E1;" points="172.062,168.76 172.062,238.392 127.687,238.392 109.255,203.576  127.687,168.76"></polygon> 	<polygon class="shadow-obj" style="fill: rgb(247, 181, 179);" points="137.955,219.998 129.261,203.576 137.955,187.154 172.062,187.154  172.062,219.998"></polygon>
		</g>
		<g class="hexatar-ears-left"> 	<polygon class="shadow-obj" style="fill: rgb(247, 181, 179);" points="340.163,238.392 340.163,168.76 382.976,168.76 401.408,203.576  382.976,238.392"></polygon> 	<polygon class="shadow-obj-2x" style="fill: rgb(242, 136, 133);" points="372.708,187.154 381.402,203.576 372.708,219.998  340.163,219.998 340.163,187.154"></polygon>
		</g>
	</g></g>
		<g id="hexatar-face"><g class="hexatar-base">
		<path class="col-obj" style="fill:#FCE2E1;" d="M256.005,7.17l-102.4,64.185l0,215.354c0,30.805,15.891,59.432,42.035,75.724 l29.615,18.455c18.815,11.725,42.668,11.701,61.46-0.062l29.805-18.657c26.058-16.311,41.883-44.887,41.883-75.629l0-215.185 L256.005,7.17z"></path>
		<path class="shadow-obj" style="fill: rgb(247, 181, 179);" d="M286.716,380.827L286.716,380.827l29.806-18.657 c26.058-16.311,41.883-44.887,41.883-75.629V71.355L256.005,7.17l-0.001,382.495C266.666,389.652,277.323,386.706,286.716,380.827 z"></path>
	</g></g>
		<g id="hexatar-mouth"><g class="hexatar-base">
		<path class="col-obj" style="fill: rgb(223, 144, 129);" d="M225.536,314.077h61.606l-7.554,3.65c-6.061,2.929-14.463,4.586-23.249,4.586h0 c-8.785,0-17.187-1.657-23.249-4.586L225.536,314.077z"></path>
		<path class="shadow-obj" style="fill: rgb(213, 108, 88);" d="M272.549,304.077h-10.691l-5.52,8.466l-5.52-8.466h-10.691 c-7.044,0-13.531,3.831-16.932,10h66.285C286.08,307.908,279.594,304.077,272.549,304.077z"></path>
	</g></g>
		<g id="hexatar-beard"></g>
		<g id="hexatar-mustache"><g class="hexatar-base">
		<path class="col-obj" style="fill: rgb(140, 82, 51);" d="M310.72,278.078c-5.801-7.136-25.64-10.502-33.776-10.448 c-7.779,0.052-16.789-1.972-20.795-3.724v-0.033c-0.012,0.006-0.028,0.011-0.04,0.017c-0.013-0.006-0.028-0.011-0.04-0.017v0.033 c-4.006,1.753-13.017,3.776-20.795,3.724c-8.136-0.054-27.974,3.312-33.776,10.448c0,0-5.326,40.802,0,61.252 c2.832,10.874,7.45,18.285,11.935,24.288c6.926,9.271,17.827,14.717,29.399,14.717h26.554c11.573,0,22.473-5.446,29.399-14.717 c4.485-6.003,9.103-13.414,11.935-24.288C316.046,318.88,310.72,278.078,310.72,278.078z M289.726,360.179 c-15.512,13.444-28.342,3.138-28.342-8.025h-10.549c0,11.163-12.83,21.469-28.342,8.025s-13.27-62.731-10.009-74.76 c0,0,11.333,1.722,25.673,0c9.333-1.12,15.773-6.442,17.953-11.784c2.18,5.342,8.62,10.664,17.953,11.784 c14.34,1.722,25.673,0,25.673,0C302.996,297.448,305.238,346.735,289.726,360.179z"></path>
		<path class="shadow-obj" style="opacity: 0.4; fill: rgb(103, 60, 37);" d="M256.069,352.153h5.315c0,11.163,12.83,21.469,28.342,8.025 s13.27-62.731,10.009-74.76c0,0-11.333,1.722-25.673,0c-9.385-1.127-15.849-6.502-17.993-11.874v-9.672 c3.968,1.76,13.048,3.81,20.876,3.758c8.136-0.054,27.974,3.312,33.776,10.448c0,0,5.326,40.802,0,61.252 c-2.832,10.874-7.45,18.285-11.935,24.288c-6.926,9.271-17.827,14.717-29.399,14.717h-13.317V352.153z"></path>
	</g></g>
		<g id="hexatar-nose"><g class="hexatar-base">
		<polygon class="shadow-obj" style="fill: rgb(247, 181, 179);" points="273.806,239.281 262.701,172.435 249.3,172.435 238.196,239.281  232.482,239.281 227.055,255.459 233.14,256.886 237.108,254.618 250.825,264.281 260.963,264.281 274.253,255.561  278.008,257.916 284.946,255.459 279.519,239.281"></polygon>
		<polygon class="shadow-obj-2x" style="fill: rgb(242, 136, 133);" points="273.806,239.281 262.701,172.435 256.001,172.435 256.001,264.281  260.963,264.281 274.253,255.561 278.008,257.916 284.946,255.459 279.519,239.281"></polygon>
	</g></g>
		<g id="hexatar-eyeGroup">
			<g id="hexatar-eye"><g class="hexatar-base">
		<g class="hexatar-eye-right">
			<path class="white-obj" style="fill:#FFFFFF;" d="M231.669,200.013c0,0-8.628-11.837-22.291-11.837 c-13.662,0-19.709,8.719-19.709,8.719s5.067,8.466,17.319,8.466c12.251,0,21.216-5.852,21.216-5.852 S230.354,201.474,231.669,200.013z"></path>
			<path class="shadow-obj" style="opacity: 0.3; fill: rgb(0, 0, 0);" d="M218.671,191.131c-0.18-0.779-0.454-1.51-0.793-2.197 c-7.55-1.041-13.762-0.357-18.474,0.845c-0.7,1.817-0.884,3.855-0.413,5.895c1.254,5.434,6.677,8.823,12.111,7.568 C216.537,201.988,219.925,196.566,218.671,191.131z"></path>
			<circle class="col-obj" style="fill: rgb(17, 17, 17);" cx="208.831" cy="193.403" r="5.227"></circle>
			<circle class="white-obj" style="fill:#FFFFFF;" cx="205.565" cy="197.013" r="2.568"></circle>
			<path class="hair-col" style="fill: rgb(66, 66, 66);" d="M209.558,186.663c-14.044,0-19.889,10.232-19.889,10.232 s6.86-8.204,19.829-8.204c12.969,0,22.171,11.322,22.171,11.322S223.602,186.663,209.558,186.663z"></path>
		</g>
		<g class="hexatar-eye-left">
			<path class="white-obj" style="fill:#FFFFFF;" d="M284.452,200.013c0,0,8.628-11.837,22.291-11.837s19.709,8.719,19.709,8.719 s-5.067,8.466-17.319,8.466c-12.251,0-21.216-5.852-21.216-5.852S285.768,201.474,284.452,200.013z"></path>
			<path class="shadow-obj" style="opacity: 0.3; fill: rgb(0, 0, 0);" d="M297.45,191.131c0.18-0.779,0.454-1.51,0.793-2.197 c7.55-1.041,13.762-0.357,18.474,0.845c0.7,1.817,0.884,3.855,0.413,5.895c-1.254,5.434-6.677,8.823-12.111,7.568 C299.584,201.988,296.196,196.566,297.45,191.131z"></path>
			<circle class="col-obj" style="fill: rgb(17, 17, 17);" cx="307.29" cy="193.403" r="5.227"></circle>
			<circle class="white-obj" style="fill:#FFFFFF;" cx="310.556" cy="197.013" r="2.568"></circle>
			<path class="hair-col-2x" style="fill: rgb(40, 40, 40);" d="M284.452,200.013c0,0,9.203-11.322,22.171-11.322 c12.969,0,19.829,8.204,19.829,8.204s-5.844-10.232-19.889-10.232C292.519,186.663,284.452,200.013,284.452,200.013z"></path>
		</g>
	</g></g>
			<g id="hexatar-eyebrows"><g class="hexatar-base">
		<g class="hexatar-eyebrows-right"> 	<path class="col-obj" style="fill: rgb(66, 66, 66);" d="M191.416,162.211l-13.261,14.976l11.872-5.504l41.908,3.466l1.893-9.194 L191.416,162.211z M235.683,167.818l-2.537,7.581l2.751,0.159l4.422-7.031L235.683,167.818z"></path>
		</g>
		<g class="hexatar-eyebrows-left"> 	<path class="col-obj" style="fill: rgb(66, 66, 66);" d="M272.368,168.527l4.422,7.031l2.751-0.159l-2.537-7.581L272.368,168.527z M321.347,162.211l-42.412,3.744l1.893,9.194l41.908-3.466l11.872,5.504L321.347,162.211z"></path> 	<path class="shadow-obj" style="opacity: 0.4; fill: rgb(40, 40, 40);" d="M272.368,168.527l4.422,7.031l2.751-0.159l-2.537-7.581L272.368,168.527z M321.347,162.211l-42.412,3.744l1.893,9.194l41.908-3.466l11.872,5.504L321.347,162.211z"></path>
		</g>
	</g></g>	
		</g>
		<g id="hexatar-hair-front"><g class="element-front">
			<path class="col-obj" style="fill: rgb(101, 53, 0);" d="M256.005,7.172l-102.4,64.185v147.003h8.982v-40.652h10.283v-57.242 c-0.353-22.366,18.856-38.627,38.38-32.789l12.868,3.847c20.842,6.232,42.844,5.901,63.526-0.955l12.311-4.081 c19.707-6.533,38.157,9.786,38.157,32.536v58.613h12.292v41.051h8l0-147.331L256.005,7.172z"></path>
			<path class="shadow-obj" style="opacity: 0.4; fill: rgb(50, 26, 0);" d="M256.004,7.172l0.001,88.781c10.691-0.161,21.298-1.957,31.639-5.385 l12.311-4.081c19.707-6.533,38.157,9.786,38.157,32.536v58.613h12.279v40.723h8.013l0-147.003L256.004,7.172z"></path>
		</g></g>
		<g id="hexatar-hat"></g>
		<g id="hexatar-eyeglasses"></g>
	</g>
	<desc>Avatar generated from Hexatar.com - created with Snap</desc><text transform="matrix(1 0 0 1 0 528)" font-size="12">Avatar generated from Hexatar.com</text></svg>