<svg width="512" height="512" id="hexatar-preview" version="1.1" xmlns="http://www.w3.org/2000/svg" xmlns:xlink="http://www.w3.org/1999/xlink" x="0px" y="0px" viewBox="0 0 512 512" style="enable-background:new 0 0 512 512;" xml:space="preserve">
    <g id="hexatar-background"><g class="hexatar-base">
		<rect class="col-obj" x="-0.003" y="0.002" style="fill: rgb(236, 41, 123);" width="512" height="512"></rect>
		<path class="light-obj" style="opacity: 0.8; fill: rgb(240, 88, 152);" d="M253.725,0.002H89.221l82.252,82.252L253.725,0.002z M258.27,0.002 l82.252,82.252l82.252-82.252H258.27z M85.957,508.87l-85.96-82.521v85.653h251.877l4.124-4.124l-84.525-84.525L85.957,508.87z M511.997,422.778V253.729l-0.925-0.925l-84.525,84.524L511.997,422.778z M260.121,512.002h251.876v-85.654l-85.96,82.521 l-85.515-85.515l-84.525,84.525L260.121,512.002z M-0.003,253.73v169.049l85.45-85.451L0.923,252.804L-0.003,253.73z M169.972,252.804l-84.525,84.524l86.025,86.025l84.525-84.525L169.972,252.804z M255.998,338.829l84.525,84.525l86.025-86.025 l-84.524-84.524L255.998,338.829z M511.997,0.002h-89.223l87.782,84.269l-84.008,84.008l84.525,84.525l0.925-0.925V0.002z M426.548,168.279l-86.025-86.025l-84.525,84.525l86.025,86.025L426.548,168.279z M1.439,84.271L89.221,0.002H-0.003v251.876 l0.926,0.926l84.525-84.525L1.439,84.271z M169.972,252.804l86.025-86.025l-84.525-84.525l-86.025,86.025L169.972,252.804z"></path>
	</g></g>
	<g id="hexatar-hair-rear"><g class="element-rear">
		<path class="col-obj" style="fill: rgb(131, 34, 34);" d="M376.272,493.48H133.7V165.345c0-18.21,14.763-32.973,32.973-32.973h176.626 c18.21,0,32.973,14.763,32.973,32.973V493.48z"></path>
		<path class="shadow-obj" style="opacity: 0.4; fill: rgb(90, 23, 23);" d="M376.272,493.48H255.504V132.372h87.795c18.21,0,32.973,14.763,32.973,32.973 V493.48z"></path>
		<g class="hair-ext" style="display: block;">
			<path class="col-obj" style="fill: rgb(131, 34, 34);" d="M376.227,113.766C374.504,51.103,322.628,0.811,254.986,0.811 c-65.897,0-119.518,50.292-121.242,112.955H133.7v94.64h46.703c20.572,15.373,46.458,24.537,74.583,24.537 s54.01-9.164,74.583-24.537h46.703v-94.64H376.227z"></path>
			<path class="shadow-obj" style="opacity: 0.4; fill: rgb(90, 23, 23);" d="M376.227,113.766C374.509,51.268,321.818,1.081,256.158,0.817l-0.654,207.589 h120.768v-94.64H376.227z"></path>
		</g>
	</g></g>
	<g id="hexatar-bodies">
		<g id="hexatar-body">
			<polygon class="col-obj" style="fill:#FCE2E1;" points="380.515,465 301,451 301,334 211,334 211,451 131.636,465 94.115,512   418.035,512 "></polygon>
			<polygon class="shadow-obj" style="fill: rgb(247, 181, 179);" points="380.541,465 301,451 301,334 256,334 256,512 418.062,512 "></polygon>
			<polygon id="hexatar-neck-control" class="shadow-obj-2x" style="opacity: 0.5; fill: rgb(242, 136, 133);" points="301.054,387.482 255.998,427.693 210.942,384.615  210.942,333.485 301.054,333.485 "></polygon>
		</g>
		<g id="hexatar-clothes"><g class="hexatar-base">
			<path class="col-obj" style="fill: rgb(34, 34, 34);" d="M390.789,455.65c-1.081-2.578-4.071-3.836-6.858-4.049c-5.063-0.387-10.252,1.998-13.256,6.092 c-0.372-2.595-1.82-5.019-3.928-6.576c-2.108-1.558-4.85-2.23-7.44-1.824c-2.226,0.349-4.483,1.677-5.133,3.835 c-0.761,2.526,0.943,5.204,3.103,6.721c1.932,1.357,4.283,2.055,6.642,2.089c-12.532,10.86-51.166,39.642-108.612,39.642 c-70.801,0-101.702-43.724-101.702-43.724h-8.129v54.149h230.343v-47.209c1.711,0.492,3.516,0.648,5.3,0.57 c2.686-0.117,5.461-0.762,7.519-2.493C390.695,461.14,391.829,458.129,390.789,455.65z"></path>
	</g></g>
	</g>
	<g id="hexatar-faces">
		<g id="hexatar-ears"><g class="hexatar-base">
		<g class="hexatar-ears-right"> 	<polygon class="col-obj" style="fill:#FCE2E1;" points="172.639,176.555 172.639,243.147 154.47,251.417 138.743,242.769  115.596,187.997 141.602,155.736"></polygon> 	<polygon class="shadow-obj" style="fill: rgb(247, 181, 179);" points="143.639,169.144 127.136,189.615 146.602,235.678 154.893,240.237  172.639,231.856 172.639,188.018"></polygon>
		</g>
		<g class="hexatar-ears-left"> 	<polygon class="shadow-obj" style="fill: rgb(247, 181, 179);" points="339.621,243.147 339.621,176.555 369.839,155.736 395.845,187.997  373.552,240.749 356.971,251.417"></polygon> 	<polygon class="shadow-obj-2x" style="fill: rgb(242, 136, 133);" points="367.874,169.233 339.621,188.383 339.621,232.942 356.246,239.992  365.543,234.011 384.305,189.615"></polygon>
		</g>
	</g></g>
		<g id="hexatar-face"><g class="hexatar-base">
		<path class="col-obj" style="fill:#FCE2E1;" d="M255.986,7.171l-102.4,64.185l0,202.679c0,11.644,3.45,23.027,9.913,32.712 l35.429,53.087c10.932,16.38,29.323,26.217,49.016,26.217h0.384h16.289c19.819,0,38.311-9.963,49.213-26.514l34.839-52.892 c6.338-9.623,9.716-20.893,9.716-32.415l0-202.874L255.986,7.171z"></path>
		<path class="shadow-obj" style="fill: rgb(247, 181, 179);" d="M255.986,7.171l-0.001,378.88h8.632h0c19.819,0,38.311-9.963,49.213-26.514 l34.839-52.892c6.338-9.623,9.716-20.893,9.716-32.415l0-202.874L255.986,7.171z"></path>
	</g></g>
		<g id="hexatar-mouth"><g class="hexatar-base">
		<path class="col-obj" style="fill: rgb(231, 120, 107);" d="M220.507,313.084h71.666l-13.841,16.633c-2.739,3.291-6.799,5.195-11.081,5.195 h-21.822c-4.282,0-8.342-1.904-11.081-5.195L220.507,313.084z"></path>
		<path class="shadow-obj" style="fill: rgb(224, 80, 63);" d="M257.748,304.374l-1.408,2.006l-1.408-2.007 c-2.98-4.248-8.134-6.408-13.253-5.555l-6.435,1.073c-2.481,0.414-4.764,1.608-6.519,3.41l-9.528,9.783h74.285l-10.247-10.059 c-1.73-1.698-3.94-2.822-6.33-3.221l-5.903-0.985C265.883,297.965,260.728,300.126,257.748,304.374z"></path>
	</g></g>
		<g id="hexatar-beard"></g>
		<g id="hexatar-mustache"></g>
		<g id="hexatar-nose" transform="matrix(0.7733,0,0,0.7733,58.0268,61.5861)"><g class="hexatar-base">
		<polygon class="shadow-obj" style="fill: rgb(247, 181, 179);" points="263.576,243.832 248.425,243.832 241.036,248.716 233.831,253.174  235.138,260.036 256.001,264.281 276.158,260.036 278.17,253.174 270.965,248.716"></polygon>
		<polygon class="shadow-obj-2x" style="fill: rgb(242, 136, 133);" points="263.576,243.832 256.001,243.832 256.001,264.281 276.158,260.036  278.17,253.174 270.965,248.716"></polygon>
	</g></g>
		<g id="hexatar-eyeGroup">
			<g id="hexatar-eye"><g class="hexatar-base">
		<g class="hexatar-eye-right">
			<path class="white-obj" style="fill:#FFFFFF;" d="M228.119,199.084c0.083-0.185-2.219-13.758-21.621-13.758 c-16.289,0-24.102,10.544-24.102,10.544s6.213,10.298,21.412,10.298s20.463-4.703,20.463-4.703S229.041,203.287,228.119,199.084z"></path>
			<circle class="shadow-obj" style="opacity: 0.3; fill: rgb(0, 0, 0);" cx="205.317" cy="193.382" r="7.892"></circle>
			<circle class="col-obj" style="fill: rgb(17, 17, 17);" cx="205.317" cy="193.382" r="3.69"></circle>
			<circle class="white-obj" style="fill:#FFFFFF;" cx="202.332" cy="196.089" r="2.295"></circle>
			<path class="hair-col" style="fill: rgb(66, 66, 66);" d="M206.103,184.068c-11.64,0-17.734,3.93-20.813,7.255l0.006-0.009 c0,0-4.691,0.737-7.241-1.622c0.541,4.132,3.929,3.69,3.929,3.69s-6.247,1.836-9.415,0.411c4.018,6.379,9.826,2.076,9.826,2.076 s9.886-9.383,23.553-9.383c15.994,0,22.17,12.596,22.17,12.596S226.27,184.068,206.103,184.068z"></path>
		</g>
		<g class="hexatar-eye-left">
			<path class="white-obj" style="fill:#FFFFFF;" d="M283.119,199.084c-0.083-0.185,2.219-13.758,21.621-13.758 c16.289,0,24.102,10.544,24.102,10.544s-6.213,10.298-21.412,10.298c-15.199,0-20.463-4.703-20.463-4.703 S282.197,203.287,283.119,199.084z"></path>
			<circle class="shadow-obj" style="opacity: 0.3; fill: rgb(0, 0, 0);" cx="305.921" cy="193.382" r="7.892"></circle>
			<circle class="col-obj" style="fill: rgb(17, 17, 17);" cx="305.921" cy="193.382" r="3.69"></circle>
			<circle class="white-obj" style="fill:#FFFFFF;" cx="308.906" cy="196.089" r="2.295"></circle>
			<path class="hair-col-2x" style="fill: rgb(40, 40, 40);" d="M305.134,184.068c11.64,0,17.734,3.93,20.813,7.255l-0.006-0.009 c0,0,4.691,0.737,7.241-1.622c-0.541,4.132-3.929,3.69-3.929,3.69s6.247,1.836,9.415,0.411c-4.018,6.379-9.826,2.076-9.826,2.076 s-9.886-9.383-23.553-9.383c-15.994,0-22.17,12.596-22.17,12.596S284.967,184.068,305.134,184.068z"></path>
		</g>
	</g></g>
			<g id="hexatar-eyebrows"><g class="hexatar-base">
		<g class="hexatar-eyebrows-right"> 	<path class="col-obj" style="fill: rgb(66, 66, 66);" d="M177.94,173.423l13.191-2.825l45.825,5.426l-3.058-8.317l-34.958-2.642 C191.657,165.576,184.534,170.289,177.94,173.423L177.94,173.423z"></path>
		</g>
		<g class="hexatar-eyebrows-left"> 	<path class="col-obj" style="fill: rgb(66, 66, 66);" d="M334.84,173.275l-13.188-2.678l-45.828,5.572l3.02-8.365l34.967-2.778 C321.096,165.499,328.229,170.175,334.84,173.275L334.84,173.275z"></path> 	<path class="shadow-obj" style="opacity: 0.4; fill: rgb(40, 40, 40);" d="M334.84,173.275l-13.188-2.678l-45.828,5.572l3.02-8.365l34.967-2.778 C321.096,165.499,328.229,170.175,334.84,173.275L334.84,173.275z"></path>
		</g>
	</g></g>	
		</g>
		<g id="hexatar-hair-front"><g class="element-front">
		<g class="hair-ext" style="display: block;">
			<path class="col-obj" style="fill: rgb(131, 34, 34);" d="M376.227,113.766C374.504,51.103,322.628,0.811,254.986,0.811 c-65.897,0-119.518,50.292-121.242,112.955H133.7v94.64h30.395V75.65h185.146v132.756h27.03v-94.64H376.227z"></path>
			<path class="shadow-obj" style="opacity: 0.4; fill: rgb(90, 23, 23);" d="M376.227,113.766C374.508,51.268,321.818,1.081,256.158,0.817l-0.236,74.833 h93.319v132.756h27.03v-94.64H376.227z"></path>
		</g>
		<path class="col-obj" style="fill: rgb(131, 34, 34);" d="M256.107,6.182L153.498,70.315l0,154.796c0,9.978,8.089,18.068,18.068,18.068h0 v-99.491h49.011l7.35-46.231l5.84,46.231h44.612l5.77-46.231l7.281,46.231h48.802v99.491h0c9.978,0,18.068-8.089,18.068-18.068 l0-153.955L256.107,6.182z"></path>
		<path class="shadow-obj" style="opacity: 0.4; fill: rgb(90, 23, 23);" d="M256.107,6.182l-0.12,137.505h22.391l5.77-46.231l7.281,46.231h48.802v99.491 c9.978,0,18.068-8.089,18.068-18.068l0-153.955L256.107,6.182z"></path>
	</g></g>
		<g id="hexatar-hat"></g>
		<g id="hexatar-eyeglasses"></g>
	</g>
	<desc>Avatar generated from Hexatar.com - created with Snap</desc><text transform="matrix(1 0 0 1 0 528)" font-size="12">Avatar generated from Hexatar.com</text></svg>