<svg width="512" height="512" id="hexatar-preview" version="1.1" xmlns="http://www.w3.org/2000/svg" xmlns:xlink="http://www.w3.org/1999/xlink" x="0px" y="0px" viewBox="0 0 512 512" style="enable-background:new 0 0 512 512;" xml:space="preserve">
    <g id="hexatar-background"><g class="hexatar-base">
		<rect class="col-obj" x="-0.003" y="0.002" style="fill: rgb(146, 212, 232);" width="512" height="512"></rect>
		<rect class="shadow-obj" x="255.946" y="0.002" style="opacity: 0.8; fill: rgb(104, 195, 223);" width="257.263" height="512"></rect>
	</g></g>
	<g id="hexatar-hair-rear"></g>
	<g id="hexatar-bodies" transform="matrix(1.8067,0,0,1.8067,-206.5059,-341.0123)">
		<g id="hexatar-body">
			<polygon class="col-obj" style="fill: rgb(195, 84, 0);" points="380.515,465 301,451 301,334 211,334 211,451 131.636,465 94.115,512   418.035,512 "></polygon>
			<polygon class="shadow-obj" style="fill: rgb(144, 62, 0);" points="380.541,465 301,451 301,334 256,334 256,512 418.062,512 "></polygon>
			<polygon id="hexatar-neck-control" class="shadow-obj-2x" style="opacity: 0.5; fill: rgb(93, 40, 0);" points="301.054,387.482 255.998,427.693 210.942,384.615  210.942,333.485 301.054,333.485 "></polygon>
		</g>
		<g id="hexatar-clothes"><g class="hexatar-base">
		<path class="shadow-obj-2x" style="fill: rgb(83, 96, 17);" d="M346.448,403.978h-44.967l-0.458,7.478l12.481,31.903h47.454v-24.872 C360.957,410.474,354.461,403.978,346.448,403.978z M151.031,418.935v24.424h47.459l12.481-31.903v-7.478l-44.985,0.001 C157.727,403.979,151.031,410.675,151.031,418.935z"></path>
		<polygon class="static-obj" style="fill:#CCCCCC;" points="315.28,435.317 256.02,449.035 196.75,435.317 195.746,511.994  316.867,511.994"></polygon>
		<polygon class="static-obj" style="fill:#EC373D;" points="271.123,511.994 261.805,473.204 268.504,464.719 255.998,448.879  243.493,464.719 250.192,473.204 240.874,511.994"></polygon>
		<path class="static-obj" style="fill:#666666;" d="M129.466,462.994l-37.307,49h162.096l-57.505-76.678L129.466,462.994z M383.147,464.994l-67.866-29.678l-56.957,76.678h162.131L383.147,464.994z"></path>
		<path class="static-obj" style="opacity:0.3;fill:#494949;" d="M75.159,511.994L123.836,512l-11.37-47.006L75.159,511.994z M383.147,464.994L372.426,512l48.028-0.006L383.147,464.994z"></path>
		<polygon class="white-obj" style="fill:#FFFFFF;" points="229.079,484.336 256.02,449.035 284.359,484.336 315.28,435.317  301.023,411.456 301.023,425.901 256.019,449.001 210.971,425.697 211.014,411.456 196.75,435.317"></polygon>
		<path class="col-obj" style="fill:#9DB720;" d="M147.403,455.083l-35.16,9.912l-37.084,47h131.175v-41.747 c0-30.157-25.145-52.086-55.302-52.086L151,432.343L147.403,455.083z M399.755,464.994l-35.376-9.595L361,432.343l0-14.182 c-30.157,0-54.605,21.929-54.605,52.086v41.747h130.444L399.755,464.994z"></path>
	</g></g>
	</g>
	<g id="hexatar-faces">
		<g id="hexatar-ears"><g class="hexatar-base">
		<g class="hexatar-ears-right"> 	<polygon class="col-obj" style="fill: rgb(195, 84, 0);" points="172.062,168.76 172.062,238.392 127.687,238.392 109.255,203.576  127.687,168.76"></polygon> 	<polygon class="shadow-obj" style="fill: rgb(144, 62, 0);" points="137.955,219.998 129.261,203.576 137.955,187.154 172.062,187.154  172.062,219.998"></polygon>
		</g>
		<g class="hexatar-ears-left"> 	<polygon class="shadow-obj" style="fill: rgb(144, 62, 0);" points="340.163,238.392 340.163,168.76 382.976,168.76 401.408,203.576  382.976,238.392"></polygon> 	<polygon class="shadow-obj-2x" style="fill: rgb(93, 40, 0);" points="372.708,187.154 381.402,203.576 372.708,219.998  340.163,219.998 340.163,187.154"></polygon>
		</g>
	</g></g>
		<g id="hexatar-face"><g class="hexatar-base">
		<polygon class="col-obj" style="fill: rgb(195, 84, 0);" points="256.005,7.17 153.605,71.355 153.605,291.893 216.444,386.05  248.348,386.05 296.385,386.05 358.404,291.893 358.404,71.355"></polygon>
		<polygon class="shadow-obj" style="fill: rgb(144, 62, 0);" points="256.006,7.17 256.005,386.05 264.637,386.05 296.385,386.05  358.404,291.893 358.405,71.355"></polygon>
	</g></g>
		<g id="hexatar-mouth" transform="matrix(1.1533,0,0,1.1533,-39.3052,-49.2019)"><g class="hexatar-base">
		<polygon class="col-obj" style="fill: rgb(132, 35, 0);" points="223.302,314.077 289.375,314.077 279.556,338.995 233.121,338.995"></polygon>
		<polygon class="shadow-obj" style="fill: rgb(81, 21, 0);" points="280.773,302.769 261.858,302.769 256.339,311.236 250.819,302.769  231.904,302.769 219.196,314.077 293.481,314.077"></polygon>
	</g></g>
		<g id="hexatar-beard"></g>
		<g id="hexatar-mustache" transform="matrix(1.1149,0,0,1.1149,-29.4244,-28.8916)"><g class="hexatar-base">
		<path class="col-obj" style="fill: rgb(66, 66, 66);" d="M310.72,278.078c-5.801-7.136-25.64-10.502-33.776-10.448 c-7.779,0.052-16.789-1.972-20.795-3.724v-0.033c-0.012,0.006-0.028,0.011-0.04,0.017c-0.013-0.006-0.028-0.011-0.04-0.017v0.033 c-4.006,1.753-13.017,3.776-20.795,3.724c-8.136-0.054-27.974,3.312-33.776,10.448c0,0-5.326,40.802,0,61.252 c2.832,10.874,7.45,18.285,11.935,24.288c6.926,9.271,17.827,14.717,29.399,14.717h26.554c11.573,0,22.473-5.446,29.399-14.717 c4.485-6.003,9.103-13.414,11.935-24.288C316.046,318.88,310.72,278.078,310.72,278.078z M289.726,360.179 c-15.512,13.444-28.342,3.138-28.342-8.025h-10.549c0,11.163-12.83,21.469-28.342,8.025s-13.27-62.731-10.009-74.76 c0,0,11.333,1.722,25.673,0c9.333-1.12,15.773-6.442,17.953-11.784c2.18,5.342,8.62,10.664,17.953,11.784 c14.34,1.722,25.673,0,25.673,0C302.996,297.448,305.238,346.735,289.726,360.179z"></path>
		<path class="shadow-obj" style="opacity: 0.4; fill: rgb(40, 40, 40);" d="M256.069,352.153h5.315c0,11.163,12.83,21.469,28.342,8.025 s13.27-62.731,10.009-74.76c0,0-11.333,1.722-25.673,0c-9.385-1.127-15.849-6.502-17.993-11.874v-9.672 c3.968,1.76,13.048,3.81,20.876,3.758c8.136-0.054,27.974,3.312,33.776,10.448c0,0,5.326,40.802,0,61.252 c-2.832,10.874-7.45,18.285-11.935,24.288c-6.926,9.271-17.827,14.717-29.399,14.717h-13.317V352.153z"></path>
	</g></g>
		<g id="hexatar-nose"><g class="hexatar-base">
		<polygon class="shadow-obj" style="fill: rgb(144, 62, 0);" points="273.806,239.281 262.701,172.435 249.3,172.435 238.196,239.281  232.482,239.281 227.055,255.459 233.14,256.886 237.108,254.618 250.825,264.281 260.963,264.281 274.253,255.561  278.008,257.916 284.946,255.459 279.519,239.281"></polygon>
		<polygon class="shadow-obj-2x" style="fill: rgb(93, 40, 0);" points="273.806,239.281 262.701,172.435 256.001,172.435 256.001,264.281  260.963,264.281 274.253,255.561 278.008,257.916 284.946,255.459 279.519,239.281"></polygon>
	</g></g>
		<g id="hexatar-eyeGroup">
			<g id="hexatar-eye" transform="matrix(1,0,0,1,0,-13)"><g class="hexatar-base">
		<g class="hexatar-eye-right">
			<path class="skin-col-2x" style="opacity: 0.3; fill: rgb(42, 18, 0);" d="M206.277,212.838c-16.803,0-19.741-20.016-19.741-20.016h39.972 C226.508,192.822,223.081,212.838,206.277,212.838z"></path>
			<path class="white-obj" style="fill:#FFFFFF;" d="M206.277,208.451c-15.136,0-19.741-15.63-19.741-15.63h39.972 C226.508,192.822,221.413,208.451,206.277,208.451z"></path>
			<path class="shadow-obj" style="opacity: 0.3; fill: rgb(0, 0, 0);" d="M206.738,201.414c4.411,0,7.987-3.847,7.987-8.592h-15.974 C198.751,197.567,202.327,201.414,206.738,201.414z"></path>
			<path class="col-obj" style="fill: rgb(17, 17, 17);" d="M206.738,197.118c2.206,0,3.994-1.923,3.994-4.296h-7.987 C202.745,195.194,204.533,197.118,206.738,197.118z"></path>
			<circle class="hair-col" style="fill: rgb(66, 66, 66);" cx="203.817" cy="195.744" r="1.373"></circle>
		</g>
		<g class="hexatar-eye-left">
			<path class="skin-col" style="opacity: 0.3; fill: rgb(93, 40, 0);" d="M305.235,212.838c-16.803,0-19.741-20.016-19.741-20.016h39.972 C325.466,192.822,322.038,212.838,305.235,212.838z"></path>
			<path class="white-obj" style="fill:#FFFFFF;" d="M305.235,208.451c-15.136,0-19.741-15.63-19.741-15.63h39.972 C325.466,192.822,320.371,208.451,305.235,208.451z"></path>
			<path class="shadow-obj" style="opacity: 0.3; fill: rgb(0, 0, 0);" d="M305.696,201.414c4.411,0,7.987-3.847,7.987-8.592h-15.974 C297.708,197.567,301.284,201.414,305.696,201.414z"></path>
			<path class="col-obj" style="fill: rgb(17, 17, 17);" d="M305.696,197.118c2.206,0,3.994-1.923,3.994-4.296h-7.987 C301.702,195.194,303.49,197.118,305.696,197.118z"></path>
			<circle class="hair-col-2x" style="fill: rgb(40, 40, 40);" cx="302.774" cy="195.744" r="1.373"></circle>
		</g>
	</g></g>
			<g id="hexatar-eyebrows"></g>	
		</g>
		<g id="hexatar-hair-front"><g class="element-front">
			<polygon class="col-obj" style="fill: rgb(66, 66, 66);" points="256.26,6.947 153.607,71.356 153.607,175.3 172.52,175.3  172.982,154.138 281.914,111.457 258.029,152.504 339.494,72.543 339.494,175.3 358.406,175.3 358.407,71.356"></polygon>
			<polygon class="shadow-obj" style="opacity: 0.4; fill: rgb(40, 40, 40);" points="256.26,7.126 256.26,121.475 281.452,111.642 258.029,152.504  339.494,72.543 339.494,175.3 358.406,175.3 358.407,71.356"></polygon>
		</g></g>
		<g id="hexatar-hat"></g>
		<g id="hexatar-eyeglasses" transform="matrix(1,0,0,1,0,-1)"><g class="hexatar-base">
		<g class="hexatar-eyeglasses-right">
			<path class="col-obj" style="fill: rgb(33, 33, 33);" d="M256,184.021c0,0-10.634-3.843-15.13-5.587 c-10.922-4.235-21.742-6.745-33.514-6.454c-10.026,0.247-22.285,0.741-31.418,5.432c-3.512,1.803-13.748,2.419-13.748,2.419 c-2.006,1.269-1.898,8.084,0.002,11.347c0,0,6.322,1.24,6.322,1.241c1.51,11.972,2.523,24.656,11.962,33.359 c9.784,9.021,24.358,11.927,37.041,8.269c15.398-4.441,21.375-16.572,26.845-30.556C248.473,193.33,256,194.52,256,194.52 S256,184.04,256,184.021z M167.995,187.696h-3.123c-0.387,0-0.704-0.317-0.704-0.704c0-0.387,0.317-0.704,0.704-0.704h3.123 c0.387,0,0.704,0.317,0.704,0.704C168.698,187.379,168.382,187.696,167.995,187.696z M167.995,183.297h-3.123 c-0.387,0-0.704-0.317-0.704-0.704s0.317-0.704,0.704-0.704h3.123c0.387,0,0.704,0.317,0.704,0.704 S168.382,183.297,167.995,183.297z M223.593,225.697c-11.942,7.871-31.745,7.262-40.3-6.986c-7.764-12.93-9.478-31.775,0-36.908 c9.478-5.134,47.131-8.646,53.688,3.518C242.214,195.028,235.536,217.826,223.593,225.697z"></path>
		</g>
		<g class="hexatar-eyeglasses-left">
			<path class="col-obj" style="fill: rgb(33, 33, 33);" d="M349.81,179.832c0,0-10.249-0.616-13.76-2.419 c-8.656-4.445-20.149-5.008-29.657-5.375c-12.852-0.495-25.874,0.479-37.045,7.358c-2.839,1.748-9.826,4.625-13.348,4.625v10.5 c0,0,7.437-1.154,11.472,8.565c3.694,10.605,7.94,20.506,17.652,26.986c11.134,7.429,27.426,7.264,39.061,1.166 c15.022-7.872,17.277-23.705,19.299-38.818c2.107-0.413,4.215-0.827,6.322-1.24C351.707,187.916,351.815,181.101,349.81,179.832z M328.172,218.684c-8.491,14.223-28.065,14.83-39.918,6.973c-11.852-7.857-18.48-30.612-13.287-40.302 c6.508-12.143,43.798-8.637,53.205-3.512C337.579,186.968,335.877,205.776,328.172,218.684z M348.295,187.696h-3.123 c-0.387,0-0.704-0.317-0.704-0.704c0-0.387,0.317-0.704,0.704-0.704h3.123c0.387,0,0.704,0.317,0.704,0.704 C348.999,187.379,348.682,187.696,348.295,187.696z M348.295,183.297h-3.123c-0.387,0-0.704-0.317-0.704-0.704 s0.317-0.704,0.704-0.704h3.123c0.387,0,0.704,0.317,0.704,0.704S348.682,183.297,348.295,183.297z"></path>
			<path class="shadow-obj" style="opacity: 0.4; fill: rgb(7, 7, 7);" d="M349.81,179.832c0,0-10.249-0.616-13.76-2.419 c-8.656-4.445-20.149-5.008-29.657-5.375c-12.852-0.495-25.874,0.479-37.045,7.358c-2.839,1.748-9.826,4.625-13.348,4.625v10.5 c0,0,7.437-1.154,11.472,8.565c3.994,11.23,7.94,20.506,17.652,26.986c11.134,7.429,27.426,7.264,39.061,1.166 c15.022-7.872,17.277-23.705,19.299-38.818c2.107-0.413,4.215-0.827,6.322-1.24C351.707,187.916,351.815,181.101,349.81,179.832z M328.172,218.684c-8.491,14.223-28.065,14.83-39.918,6.973c-11.852-7.857-18.48-30.612-13.287-40.302 c6.508-12.143,43.798-8.637,53.205-3.512C337.579,186.968,335.877,205.776,328.172,218.684z M348.295,187.696h-3.123 c-0.387,0-0.704-0.317-0.704-0.704c0-0.387,0.317-0.704,0.704-0.704h3.123c0.387,0,0.704,0.317,0.704,0.704 C348.999,187.379,348.682,187.696,348.295,187.696z M348.295,183.297h-3.123c-0.387,0-0.704-0.317-0.704-0.704 s0.317-0.704,0.704-0.704h3.123c0.387,0,0.704,0.317,0.704,0.704S348.682,183.297,348.295,183.297z"></path>
		</g>
	</g></g>
	</g>
	<desc>Avatar generated from Hexatar.com - created with Snap</desc><text transform="matrix(1 0 0 1 0 528)" font-size="12">Avatar generated from Hexatar.com</text></svg>