<svg width="512" height="512" id="hexatar-preview" version="1.1" xmlns="http://www.w3.org/2000/svg" xmlns:xlink="http://www.w3.org/1999/xlink" x="0px" y="0px" viewBox="0 0 512 512" style="enable-background:new 0 0 512 512;" xml:space="preserve">
    <g id="hexatar-background"><g class="hexatar-base">
		<rect class="col-obj" x="-0.003" y="0.002" style="fill: rgb(106, 11, 88);" width="512" height="512"></rect>
		<path class="light-obj" style="fill: rgb(152, 16, 126);" d="M116.217,374.826c-11.581,0-20.968,9.383-20.968,20.959 s9.388,20.959,20.968,20.959c11.581,0,20.968-9.383,20.968-20.959S127.797,374.826,116.217,374.826z M46.325,163.172 c-11.581,0-20.968,9.39-20.968,20.973s9.388,20.973,20.968,20.973c11.581,0,20.968-9.39,20.968-20.973 S57.906,163.172,46.325,163.172z M46.325,25.359c-11.581,0-20.968,9.388-20.968,20.968c0,11.581,9.388,20.968,20.968,20.968 c11.581,0,20.968-9.388,20.968-20.968C67.294,34.747,57.906,25.359,46.325,25.359z M184.884,346.861 c11.982,0,21.695-9.388,21.695-20.968c0-11.581-9.713-20.968-21.695-20.968c-11.982,0-21.695,9.388-21.695,20.968 C163.189,337.473,172.902,346.861,184.884,346.861z M116.217,235.043c-11.581,0-20.968,9.383-20.968,20.959 s9.388,20.959,20.968,20.959c11.581,0,20.968-9.383,20.968-20.959S127.797,235.043,116.217,235.043z M465.663,67.296 c11.577,0,20.962-9.388,20.962-20.968c0-11.581-9.385-20.968-20.962-20.968c-11.577,0-20.962,9.388-20.962,20.968 C444.701,57.908,454.086,67.296,465.663,67.296z M465.663,346.861c11.577,0,20.962-9.388,20.962-20.968 c0-11.581-9.385-20.968-20.962-20.968c-11.577,0-20.962,9.388-20.962,20.968C444.701,337.473,454.086,346.861,465.663,346.861z M465.665,207.088c11.578,0,20.963-9.39,20.963-20.973c0-11.583-9.386-20.973-20.963-20.973s-20.963,9.39-20.963,20.973 C444.701,197.698,454.087,207.088,465.665,207.088z M186.103,444.708c-11.578,0-20.964,9.39-20.964,20.973 s9.386,20.973,20.964,20.973s20.964-9.39,20.964-20.973S197.681,444.708,186.103,444.708z M46.325,444.672 c-11.581,0-20.968,9.39-20.968,20.973c0,11.583,9.388,20.973,20.968,20.973c11.581,0,20.968-9.39,20.968-20.973 C67.294,454.062,57.906,444.672,46.325,444.672z M46.325,304.924c-11.581,0-20.968,9.388-20.968,20.968 c0,11.581,9.388,20.968,20.968,20.968c11.581,0,20.968-9.388,20.968-20.968C67.294,314.312,57.906,304.924,46.325,304.924z M184.884,67.296c11.982,0,21.695-9.388,21.695-20.968c0-11.581-9.713-20.968-21.695-20.968c-11.982,0-21.695,9.388-21.695,20.968 C163.189,57.908,172.902,67.296,184.884,67.296z M116.217,95.26c-11.581,0-20.968,9.384-20.968,20.959s9.388,20.959,20.968,20.959 c11.581,0,20.968-9.383,20.968-20.959S127.797,95.26,116.217,95.26z M395.778,374.826c-11.58,0-20.968,9.383-20.968,20.959 s9.388,20.959,20.968,20.959c11.58,0,20.968-9.383,20.968-20.959S407.358,374.826,395.778,374.826z M325.886,25.359 c-11.581,0-20.968,9.388-20.968,20.968c0,11.581,9.388,20.968,20.968,20.968c11.581,0,20.968-9.388,20.968-20.968 C346.854,34.747,337.466,25.359,325.886,25.359z M395.778,235.043c-11.58,0-20.968,9.383-20.968,20.959 s9.388,20.959,20.968,20.959c11.58,0,20.968-9.383,20.968-20.959S407.358,235.043,395.778,235.043z M395.778,95.26 c-11.58,0-20.968,9.384-20.968,20.959s9.388,20.959,20.968,20.959c11.58,0,20.968-9.383,20.968-20.959 S407.358,95.26,395.778,95.26z M186.103,165.142c-11.578,0-20.964,9.39-20.964,20.973c0,11.583,9.386,20.973,20.964,20.973 s20.964-9.39,20.964-20.973C207.067,174.532,197.681,165.142,186.103,165.142z M325.886,163.172 c-11.581,0-20.968,9.39-20.968,20.973s9.388,20.973,20.968,20.973c11.581,0,20.968-9.39,20.968-20.973 S337.466,163.172,325.886,163.172z M465.665,444.708c-11.578,0-20.963,9.39-20.963,20.973s9.386,20.973,20.963,20.973 s20.963-9.39,20.963-20.973S477.242,444.708,465.665,444.708z M255.995,235.043c-11.58,0-20.968,9.383-20.968,20.959 s9.388,20.959,20.968,20.959c11.58,0,20.968-9.383,20.968-20.959S267.575,235.043,255.995,235.043z M325.886,304.924 c-11.581,0-20.968,9.388-20.968,20.968c0,11.581,9.388,20.968,20.968,20.968c11.581,0,20.968-9.388,20.968-20.968 C346.854,314.312,337.466,304.924,325.886,304.924z M255.995,374.826c-11.58,0-20.968,9.383-20.968,20.959 s9.388,20.959,20.968,20.959c11.58,0,20.968-9.383,20.968-20.959S267.575,374.826,255.995,374.826z M325.886,444.672 c-11.581,0-20.968,9.39-20.968,20.973c0,11.583,9.388,20.973,20.968,20.973c11.581,0,20.968-9.39,20.968-20.973 C346.854,454.062,337.466,444.672,325.886,444.672z M255.995,95.26c-11.58,0-20.968,9.384-20.968,20.959 s9.388,20.959,20.968,20.959c11.58,0,20.968-9.383,20.968-20.959S267.575,95.26,255.995,95.26z"></path>
	</g></g>
	<g id="hexatar-hair-rear"><g class="element-rear">
		<path class="col-obj" style="fill: rgb(197, 138, 186);" d="M411.371,308.422c-18.202-53.263-69.417-77.781-69.417-77.781l-16.345,8.141 c0,0-77.369,130.588,73.688,207.203C379.393,407.965,429.574,361.684,411.371,308.422z M172.905,232.213 c0,0-52.791,20.912-74.639,72.786s25.006,101.52,2.516,138.068c156.431-60.642,87.865-201.6,87.865-201.6L172.905,232.213z"></path>
		<path class="shadow-obj" style="opacity: 0.4; fill: rgb(180, 104, 166);" d="M411.371,308.422c-18.202-53.263-69.417-77.781-69.417-77.781l-16.345,8.141 c0,0-78.882,128.168,73.688,207.203C379.393,407.965,429.574,361.684,411.371,308.422z"></path>
		<g class="hair-ext" style="display: block;">
		</g>
	</g></g>
	<g id="hexatar-bodies">
		<g id="hexatar-body">
			<polygon class="col-obj" style="fill:#FCE2E1;" points="380.515,465 301,451 301,334 211,334 211,451 131.636,465 94.115,512   418.035,512 "></polygon>
			<polygon class="shadow-obj" style="fill: rgb(247, 181, 179);" points="380.541,465 301,451 301,334 256,334 256,512 418.062,512 "></polygon>
			<polygon id="hexatar-neck-control" class="shadow-obj-2x" style="opacity: 0.5; fill: rgb(242, 136, 133);" points="301.054,387.482 255.998,427.693 210.942,384.615  210.942,333.485 301.054,333.485 "></polygon>
		</g>
		<g id="hexatar-clothes"><g class="hexatar-base">
		<path class="white-obj" style="fill:#FFFFFF;" d="M346.964,511.763H164.792v-45.88c0,0,42.823,17.239,91.086,22.38 c48.263,5.141,91.086-2.974,91.086-2.974V511.763z"></path>
		<path class="col-obj" style="fill: rgb(227, 135, 155);" d="M382.755,464.989L344,457.394c0,0-8.211,49.072-88.495,49.072 S168,457.394,168,457.394l-38.757,7.595l-37.084,47h327.68L382.755,464.989z"></path>
		<path class="shadow-obj" style="opacity: 0.4; fill: rgb(217, 94, 121);" d="M92.159,511.989l48.677,0.006l-11.37-47.006L92.159,511.989z M383.147,464.989l-10.721,47.006l48.028-0.006L383.147,464.989z"></path>
	</g></g>
	</g>
	<g id="hexatar-faces">
		<g id="hexatar-ears"><g class="hexatar-base">
		<g class="hexatar-ears-right"> 	<polygon class="col-obj" style="fill:#FCE2E1;" points="172.062,168.76 172.062,238.392 141.874,238.392 119.687,203.576  119.687,168.76"></polygon> 	<polygon class="shadow-obj" style="fill: rgb(247, 181, 179);" points="147.36,228.392 129.687,200.66 129.687,178.76 171.911,178.76  171.911,228.392"></polygon>
		</g>
		<g class="hexatar-ears-left"> 	<polygon class="shadow-obj" style="fill: rgb(247, 181, 179);" points="339.489,238.392 339.489,168.76 390.302,168.76 390.302,203.576  368.895,238.392"></polygon> 	<polygon class="shadow-obj-2x" style="fill: rgb(242, 136, 133);" points="339.587,228.392 339.587,178.76 380.301,178.76 380.301,200.748  363.304,228.392"></polygon>
		</g>
	</g></g>
		<g id="hexatar-face"><g class="hexatar-base">
		<path class="col-obj" style="fill:#FCE2E1;" d="M255.986,7.171l-102.4,64.185l0,215.354c0,30.805,15.891,59.432,42.035,75.724 l29.615,18.455c18.815,11.725,42.668,11.701,61.46-0.062l29.805-18.657c26.058-16.311,41.883-44.887,41.883-75.629l0-215.185 L255.986,7.171z"></path>
		<path class="shadow-obj" style="fill: rgb(247, 181, 179);" d="M286.696,380.827L286.696,380.827l29.805-18.657 c26.058-16.311,41.883-44.888,41.883-75.629V71.355L255.986,7.171l-0.001,382.495 C266.646,389.653,277.304,386.706,286.696,380.827z"></path>
	</g></g>
		<g id="hexatar-mouth"><g class="hexatar-base">
		<path class="col-obj" style="fill: rgb(137, 62, 106);" d="M223.304,314.077h66.072l-6.806,17.273c-1.818,4.613-6.272,7.646-11.23,7.646 h-29.999c-4.958,0-9.413-3.032-11.23-7.646L223.304,314.077z"></path>
		<path class="white-obj" style="fill:#FFFFFF;" d="M238.058,314.076h36.565l-1.154,2.002c-2.648,4.595-7.548,7.426-12.851,7.426 h-8.555c-5.303,0-10.203-2.831-12.851-7.426L238.058,314.076z"></path>
		<path class="shadow-obj" style="fill: rgb(102, 46, 79);" d="M277.089,302.769H261.86l-5.52,8.466l-5.52-8.466h-15.229 c-2.374,0-4.666,0.872-6.44,2.45l-9.954,8.857h74.285l-9.954-8.857C281.755,303.641,279.463,302.769,277.089,302.769z"></path>
	</g></g>
		<g id="hexatar-beard"></g>
		<g id="hexatar-mustache"></g>
		<g id="hexatar-nose"><g class="hexatar-base">
		<polygon class="shadow-obj" style="fill: rgb(247, 181, 179);" points="271.118,238.727 261.69,180.775 250.312,180.775 240.883,238.727  236.032,238.727 231.425,252.463 237.569,257.069 240.677,256.214 249.857,266.281 256.001,266.281 262.145,266.281  271.325,256.214 274.433,257.069 280.577,252.463 275.969,238.727"></polygon>
		<polygon class="shadow-obj-2x" style="fill: rgb(242, 136, 133);" points="271.118,238.727 261.69,180.775 256.001,180.775 256.001,266.281  262.145,266.281 271.325,256.214 274.433,257.069 280.577,252.463 275.969,238.727"></polygon>
	</g></g>
		<g id="hexatar-eyeGroup">
			<g id="hexatar-eye"><g class="hexatar-base">
		<g class="hexatar-eye-right">
			<path class="white-obj" style="fill:#FFFFFF;" d="M229.234,199.169c0,0-8.103-11.117-20.935-11.117s-18.51,8.188-18.51,8.188 s4.759,7.951,16.265,7.951c11.506,0,19.925-5.496,19.925-5.496S227.998,200.541,229.234,199.169z"></path>
			<path class="shadow-obj" style="opacity: 0.3; fill: rgb(208, 18, 98);" d="M217.026,190.827c-0.169-0.732-0.426-1.418-0.745-2.064 c-7.09-0.978-12.925-0.335-17.35,0.794c-0.658,1.706-0.83,3.62-0.388,5.536c1.178,5.104,6.271,8.286,11.374,7.108 C215.022,201.023,218.204,195.931,217.026,190.827z"></path>
			<circle class="col-obj" style="fill: rgb(236, 41, 123);" cx="207.785" cy="192.961" r="4.909"></circle>
			<circle class="white-obj" style="fill:#FFFFFF;" cx="204.718" cy="196.351" r="2.412"></circle>
			<path class="hair-col" style="fill: rgb(66, 66, 66);" d="M208.468,186.63c-6.341,0-10.886,2.223-13.913,4.529l0.026-0.031 c0,0-5.937,2.723-8.476,1.319c1.304,2.966,3.845,1.774,3.845,1.774s-2.662,2.04-8.437,1.226 c7.726,4.457,10.531-1.185,10.627-1.382c2.874-2.279,8.351-5.531,16.273-5.531c12.18,0,20.822,10.633,20.822,10.633 S221.657,186.63,208.468,186.63z"></path>
			<path class="skin-col" style="fill: rgb(242, 136, 133);" d="M216.774,184.84l9.997,6.937c0,0-8.153-6.25-9.58-7.636 c-16.75-2.116-26.937,6.712-26.937,6.712S204.033,182.548,216.774,184.84z"></path>
		</g>
		<g class="hexatar-eye-left">
			<path class="white-obj" style="fill:#FFFFFF;" d="M284.572,199.169c0,0,8.103-11.117,20.935-11.117s18.51,8.188,18.51,8.188 s-4.759,7.951-16.265,7.951c-11.506,0-19.925-5.496-19.925-5.496S285.807,200.541,284.572,199.169z"></path>
			<path class="shadow-obj" style="opacity: 0.3; fill: rgb(208, 18, 98);" d="M296.779,190.827c0.169-0.732,0.426-1.418,0.745-2.064 c7.09-0.978,12.925-0.335,17.35,0.794c0.658,1.706,0.83,3.62,0.388,5.536c-1.178,5.104-6.271,8.286-11.374,7.108 C298.783,201.023,295.601,195.931,296.779,190.827z"></path>
			<circle class="col-obj" style="fill: rgb(236, 41, 123);" cx="306.02" cy="192.961" r="4.909"></circle>
			<circle class="white-obj" style="fill:#FFFFFF;" cx="309.088" cy="196.351" r="2.412"></circle>
			<path class="hair-col-2x" style="fill: rgb(40, 40, 40);" d="M284.572,199.169c0,0,8.643-10.633,20.822-10.633 c7.921,0,13.399,3.252,16.273,5.531c0.095,0.197,2.901,5.839,10.627,1.382c-5.775,0.814-8.437-1.226-8.437-1.226 s2.541,1.192,3.845-1.774c-2.539,1.404-8.476-1.319-8.476-1.319l0.026,0.031c-3.027-2.307-7.572-4.529-13.913-4.529 C292.148,186.63,284.572,199.169,284.572,199.169z"></path>
			<path class="skin-col-2x" style="fill: rgb(237, 91, 87);" d="M323.551,190.852c0,0-10.187-8.828-26.937-6.712 c-1.427,1.386-9.58,7.636-9.58,7.636l9.997-6.937C309.772,182.548,323.551,190.852,323.551,190.852z"></path>
		</g>
	</g></g>
			<g id="hexatar-eyebrows"><g class="hexatar-base">
		<g class="hexatar-eyebrows-right"> 	<path class="col-obj" style="fill: rgb(66, 66, 66);" d="M182.905,167.553l10.957-3.576l10.134,3.022l3.458,1.732 c6.944,3.477,14.489,5.593,22.228,6.233l2.253,0.186l0,0c-1.587-5.55-6.403-9.567-12.147-10.135l-3.113-0.308l-0.753-0.276 c-7.834-2.874-16.175-4.111-24.506-3.636h0L182.905,167.553z"></path>
		</g>
		<g class="hexatar-eyebrows-left"> 	<path class="col-obj" style="fill: rgb(66, 66, 66);" d="M329.858,167.553l-10.957-3.576l-10.134,3.022l-3.458,1.732 c-6.944,3.477-14.489,5.593-22.228,6.233l-2.253,0.186l0,0c1.587-5.55,6.403-9.567,12.147-10.135l3.113-0.308l0.753-0.276 c7.834-2.874,16.175-4.111,24.506-3.636h0L329.858,167.553z"></path> 	<path class="shadow-obj" style="opacity: 0.4; fill: rgb(40, 40, 40);" d="M329.858,167.553l-10.957-3.576l-10.134,3.022l-3.458,1.732 c-6.944,3.477-14.489,5.593-22.228,6.233l-2.253,0.186l0,0c1.587-5.55,6.403-9.567,12.147-10.135l3.113-0.308l0.753-0.276 c7.834-2.874,16.175-4.111,24.506-3.636h0L329.858,167.553z"></path>
		</g>
	</g></g>	
		</g>
		<g id="hexatar-hair-front"><g class="element-front">
			<path class="col-obj" style="fill: rgb(197, 138, 186);" d="M256.082,7.174L153.553,71.378v97.382l-16.648,25.906 c0,0,39.697-3.53,120.319-57.618c-4.957,7.526-12.396,18.063-23.39,32.185c29.283-18.419,55.225-48.17,68.297-64.562 c7.313-5.621,14.87-11.589,22.675-17.931l33.879,82.965V71.378L256.082,7.174z"></path>
			<path class="shadow-obj" style="opacity: 0.4; fill: rgb(180, 104, 166);" d="M256.082,7.174l-0.202,0.127v130.643c0.449-0.3,0.892-0.593,1.344-0.896 c-0.427,0.648-0.88,1.327-1.344,2.021v13.884c19.883-16.745,36.586-36.163,46.25-48.282c7.313-5.621,14.87-11.589,22.675-17.931 l33.879,82.965V71.378L256.082,7.174z"></path>
			<g class="hair-ext" style="display: block;">
				<path class="col-obj" style="fill: rgb(197, 138, 186);" d="M156.593,74.205l99.615-62.574l99.21,62.574l2.988,93.787 c0,0,5.319-47.446,5.319-67.29c0-62.892-45.287-97.546-108.179-97.546S147.367,37.81,147.367,100.702 c0,20.516,6.238,68.266,6.238,68.266L156.593,74.205z"></path>
				<path class="shadow-obj" style="opacity: 0.4; fill: rgb(180, 104, 166);" d="M363.725,100.702c0-62.739-45.042-97.294-107.723-97.541v8.599l0.206-0.129 l99.21,62.574l2.988,93.787C358.406,167.992,363.725,120.546,363.725,100.702z"></path>
			</g>
		</g></g>
		<g id="hexatar-hat"></g>
		<g id="hexatar-eyeglasses"><g class="hexatar-base">
		<g class="hexatar-eyeglasses-right">
			<path class="col-obj" style="fill: rgb(100, 14, 124);" d="M256.003,188.913c-6.816-1.815-32.276-9.801-39.033-11.076 c-12.847-2.424-21.911-3.553-28.524-3.553c-0.659,0-14.127-0.392-19.109-0.585c-3.344-0.129-5.887,2.962-5.118,6.218 c1.334,5.648,8.019,24.205,8.021,24.159c4.247,9.119,12.663,17.233,23.456,19.27c5.216,0.984,10.262,1.484,14.998,1.484 c36.369,0,38.054-28.51,45.309-28.924V188.913z M243.938,200.667c-0.446,6.442-10.98,19.069-33.308,19.069 c-4.246,0-8.784-0.45-13.488-1.337c-13.87-2.617-23.311-17.96-21.881-28.919c0.874-6.7,3.332-10.101,14.34-10.101 c6.014,0,14.363,1.047,26.273,3.294C242.718,187.737,244.141,197.727,243.938,200.667z"></path>
		</g>
		<g class="hexatar-eyeglasses-left">
			<path class="col-obj" style="fill: rgb(100, 14, 124);" d="M256.097,188.956c0,0,0,6.93,0,6.93c7.393,0,8.832,28.945,45.466,28.945 c4.736,0,9.781-0.499,14.998-1.484c10.794-2.037,19.21-10.151,23.456-19.27c0.002,0.047,6.687-18.511,8.021-24.159 c0.769-3.256-1.775-6.348-5.118-6.218c-4.982,0.193-18.45,0.585-19.109,0.585c-6.612,0-15.676,1.129-28.524,3.553 C288.481,179.122,262.686,187.219,256.097,188.956z M296.36,182.612c11.954-2.256,20.332-3.306,26.368-3.306 c11.048,0,13.515,3.413,14.392,10.137c1.435,10.998-8.04,26.397-21.96,29.023c-4.721,0.891-9.275,1.342-13.537,1.342 c-22.408,0-32.979-12.673-33.427-19.137C267.991,197.72,269.42,187.695,296.36,182.612z"></path>
			<path class="shadow-obj" style="opacity: 0.4; fill: rgb(63, 9, 78);" d="M256.097,188.956c0,0,0,6.93,0,6.93c7.393,0,8.832,28.945,45.466,28.945 c4.736,0,9.781-0.499,14.998-1.484c10.794-2.037,19.21-10.151,23.456-19.27c0.002,0.047,6.687-18.511,8.021-24.159 c0.769-3.256-1.775-6.348-5.118-6.218c-4.982,0.193-18.45,0.585-19.109,0.585c-6.612,0-15.676,1.129-28.524,3.553 C288.481,179.122,262.686,187.219,256.097,188.956z M296.36,182.612c11.954-2.256,20.332-3.306,26.368-3.306 c11.048,0,13.515,3.413,14.392,10.137c1.435,10.998-8.04,26.397-21.96,29.023c-4.721,0.891-9.275,1.342-13.537,1.342 c-22.408,0-32.979-12.673-33.427-19.137C267.991,197.72,269.42,187.695,296.36,182.612z"></path>
		</g>
	</g></g>
	</g>
	<desc>Avatar generated from Hexatar.com - created with Snap</desc><text transform="matrix(1 0 0 1 0 528)" font-size="12">Avatar generated from Hexatar.com</text></svg>