<svg width="512" height="512" id="hexatar-preview" version="1.1" xmlns="http://www.w3.org/2000/svg" xmlns:xlink="http://www.w3.org/1999/xlink" x="0px" y="0px" viewBox="0 0 512 512" style="enable-background:new 0 0 512 512;" xml:space="preserve">
    <g id="hexatar-background"><g class="hexatar-base">
		<rect class="col-obj" x="-0.003" y="0.002" style="fill: rgb(243, 233, 214);" width="512" height="512"></rect>
		<path class="light-obj" style="fill: rgb(255, 254, 253);" d="M195.797,225.862c-17.108,0-31.003,13.911-31.003,30.969 c0,17.122,13.896,30.974,31.003,30.974c17.107,0,30.973-13.852,30.973-30.974C226.77,239.773,212.904,225.862,195.797,225.862z M316.302,287.805c17.127,0,31.006-13.852,31.006-30.974c0-17.058-13.878-30.969-31.006-30.969 c-17.102,0-30.968,13.911-30.968,30.969C285.334,273.953,299.201,287.805,316.302,287.805z M256.045,24.422l-194.902,98.49 v267.822l194.902,98.511l194.912-98.511V122.912L256.045,24.422z M388.663,352.429l-132.618,67.019l-132.608-67.019V161.238 l132.608-67.019l132.618,67.019V352.429z"></path>
	</g></g>
	<g id="hexatar-hair-rear"><g class="element-rear">
			<path class="col-obj" style="fill: rgb(67, 29, 0);" d="M459.235,362.555c-2.115-15.357-10.307-28.378-21.81-36.985 c6.518-9.714,9.64-21.761,7.918-34.261c-3.177-23.071-21.801-40.205-43.995-42.429c0.425-3.562,0.41-7.235-0.102-10.955 c-3.229-23.451-24.859-39.844-48.31-36.615H159.075c-23.451-3.229-45.081,13.164-48.31,36.615 c-0.512,3.72-0.527,7.393-0.102,10.955c-22.193,2.224-40.818,19.358-43.995,42.429c-1.721,12.501,1.4,24.547,7.918,34.261 c-11.503,8.607-19.695,21.629-21.81,36.985c-4.196,30.467,17.102,58.567,47.569,62.763c11.598,1.597,22.838-0.522,32.559-5.416 c-0.258,2.154-0.406,4.341-0.406,6.564c0,30.203,24.485,54.688,54.688,54.688c7.036,0,13.755-1.343,19.933-3.764 c8.886,18.183,27.556,30.711,49.158,30.711c21.722,0,40.485-12.665,49.31-31.013c6.386,2.614,13.372,4.066,20.7,4.066 c30.203,0,54.688-24.484,54.688-54.688c0-1.956-0.107-3.888-0.308-5.791c9.354,4.348,20.019,6.155,30.999,4.643 C442.133,421.122,463.43,393.022,459.235,362.555z"></path>
			<path class="shadow-obj" style="opacity: 0.4; fill: rgb(16, 7, 0);" d="M459.235,362.555c-2.115-15.357-10.307-28.378-21.81-36.985 c6.518-9.714,9.64-21.761,7.918-34.261c-3.177-23.071-21.801-40.205-43.995-42.429c0.425-3.562,0.41-7.235-0.102-10.955 c-3.229-23.451-24.859-39.844-48.31-36.615h-97.593v306.775c0.311,0.005,0.621,0.017,0.933,0.017 c21.722,0,40.485-12.665,49.31-31.013c6.386,2.614,13.372,4.066,20.7,4.066c30.203,0,54.688-24.484,54.688-54.688 c0-1.956-0.107-3.888-0.308-5.791c9.354,4.348,20.019,6.155,30.999,4.643C442.133,421.122,463.43,393.022,459.235,362.555z"></path>
		</g></g>
	<g id="hexatar-bodies">
		<g id="hexatar-body">
			<polygon class="col-obj" style="fill: rgb(132, 80, 0);" points="380.515,465 301,451 301,334 211,334 211,451 131.636,465 94.115,512   418.035,512 "></polygon>
			<polygon class="shadow-obj" style="fill: rgb(81, 49, 0);" points="380.541,465 301,451 301,334 256,334 256,512 418.062,512 "></polygon>
			<polygon id="hexatar-neck-control" class="shadow-obj-2x" style="opacity: 0.5; fill: rgb(30, 18, 0);" points="301.054,387.482 255.998,427.693 210.942,384.615  210.942,333.485 301.054,333.485 "></polygon>
		</g>
		<g id="hexatar-clothes"><g class="hexatar-base">
		<polygon class="col-obj" style="fill: rgb(34, 34, 34);" points="380.302,512.003 133.701,512.003 150.275,482.331 140.423,460.869  152.93,458.208 173.344,481.617 255.505,507.599 339.162,481.617 361.073,458.208 373.58,460.869 363.728,482.331"></polygon>
	</g></g>
	</g>
	<g id="hexatar-faces">
		<g id="hexatar-ears"><g class="hexatar-base">
		<g class="hexatar-ears-right"> 	<path class="col-obj" style="fill: rgb(132, 80, 0);" d="M171.892,168.502v71.215l-1.387,0.038c-19.497,0.532-38.093-8.203-50.132-23.548 l0,0c-11.015-14.039-9.633-34.133,3.201-46.533l0,0c11.241-10.861,28.342-12.9,41.821-4.987L171.892,168.502z"></path> 	<path class="shadow-obj" style="fill: rgb(81, 49, 0);" d="M149.462,175.219c-6.023,0-11.722,2.303-16.05,6.484 c-8.537,8.249-9.896,21.88-2.122,30.851c16.932,19.541,40.601,18.052,40.601,18.052v-42.58 C171.892,188.026,161.841,175.219,149.462,175.219z"></path>
		</g>
		<g class="hexatar-ears-left"> 	<path class="shadow-obj" style="fill: rgb(81, 49, 0);" d="M339.614,168.502v71.215l1.387,0.038c19.497,0.532,38.093-8.203,50.132-23.548 l0,0c11.015-14.039,9.633-34.133-3.201-46.533l0,0c-11.241-10.861-28.342-12.9-41.821-4.987L339.614,168.502z"></path> 	<path class="shadow-obj-2x" style="fill: rgb(30, 18, 0);" d="M362.043,175.219c6.023,0,11.722,2.303,16.05,6.484 c8.537,8.249,9.896,21.88,2.122,30.851c-16.932,19.541-40.601,18.052-40.601,18.052v-42.58 C339.614,188.026,349.664,175.219,362.043,175.219z"></path>
		</g>
	</g></g>
		<g id="hexatar-face"><g class="hexatar-base">
		<path class="col-obj" style="fill: rgb(132, 80, 0);" d="M255.986,7.171l-102.4,64.185l0,243.722c0,22.811,12.509,43.785,32.578,54.627 l15.003,8.105c10.014,5.41,21.217,8.242,32.599,8.242h45.056c11.51,0,22.835-2.897,32.931-8.423l14.353-7.856 c19.902-10.893,32.278-31.775,32.278-54.463l0-243.953L255.986,7.171z"></path>
		<path class="shadow-obj" style="fill: rgb(81, 49, 0);" d="M255.986,7.171l-0.001,378.88h22.837c11.51,0,22.835-2.897,32.931-8.423 l14.353-7.856c19.902-10.893,32.278-31.775,32.278-54.463l0-243.953L255.986,7.171z"></path>
	</g></g>
		<g id="hexatar-mouth"><g class="hexatar-base">
		<path class="col-obj" style="fill: rgb(241, 90, 36);" d="M223.304,314.077h66.072l-7.257,14.581c-1.57,3.154-4.789,5.148-8.312,5.148 h-34.934c-3.523,0-6.742-1.994-8.312-5.148L223.304,314.077z"></path>
		<path class="shadow-obj" style="fill: rgb(212, 66, 14);" d="M266.265,302.583l-9.925,3.389l-9.925-3.389 c-1.454-0.496-2.98-0.75-4.516-0.75h-6.203c-2.395,0-4.698,0.926-6.426,2.584l-10.072,9.66h74.285l-10.611-9.784 c-1.715-1.581-3.962-2.459-6.294-2.459h-5.796C269.245,301.833,267.719,302.087,266.265,302.583z"></path>
	</g></g>
		<g id="hexatar-beard"></g>
		<g id="hexatar-mustache"></g>
		<g id="hexatar-nose"><g class="hexatar-base">
		<polygon class="shadow-obj" style="fill: rgb(81, 49, 0);" points="267.646,177.801 244.355,177.801 238.358,229.888 228.103,245.227  231.185,254.052 235.543,252.404 250.715,268.281 261.18,268.281 276.138,252.404 281.756,254.052 283.898,245.227  273.643,229.888"></polygon>
		<polygon class="shadow-obj-2x" style="fill: rgb(30, 18, 0);" points="267.646,177.801 256.001,177.801 256.001,268.281 261.18,268.281  276.138,252.404 281.756,254.052 283.898,245.227 273.643,229.888"></polygon>
	</g></g>
		<g id="hexatar-eyeGroup">
			<g id="hexatar-eye"><g class="hexatar-base">
		<g class="hexatar-eye-right">
			<path class="white-obj" style="fill:#FFFFFF;" d="M226.277,192.391l-16.876-3.296l-16.574,1.918l-2.877,3.597l12.116,4.928 l23.527-0.551l2.456-0.26L226.277,192.391z"></path>
			<path class="shadow-obj" style="opacity: 0.3; fill: rgb(0, 0, 0);" d="M216.961,192.194c-0.067-0.592-0.207-1.157-0.391-1.699 l-6.853-1.339c-0.171-0.016-0.337-0.026-0.506-0.039l-8.043,0.93c-0.495,1.225-0.718,2.579-0.56,3.984 c0.251,2.234,1.377,4.157,2.995,5.469l10.651-0.249C216.176,197.536,217.27,194.95,216.961,192.194z"></path>
			<circle class="col-obj" style="fill: rgb(17, 17, 17);" cx="208.784" cy="193.113" r="4.258"></circle>
			<circle class="white-obj" style="fill:#FFFFFF;" cx="205.803" cy="195.73" r="2.649"></circle>
			<path class="hair-col" style="fill: rgb(15, 65, 59);" d="M228.183,198.367c-0.313-1.798-1.311-5.624-1.279-5.646 c-3.597-1.741-14.535-3.927-17.053-4.227c-6.654,0.06-10.491,0.179-11.57,0.36c-2.218,0.24-3.957,0.539-5.276,0.9 c-2.518,1.379-5.635,1.738-9.292,1.019c1.739,1.379,4.376,1.618,8.033,0.719c-3.657,2.938-11.39,2.817-11.629,2.757 c0.24,0.119,5.575,1.978,7.913,1.559c1.978-0.48,4.796-3.058,6.055-4.437c4.976-1.139,10.371-1.678,16.066-1.498 c3.124,0.539,14.589,2.705,16.125,3.117C226.432,193.042,228.312,199.106,228.183,198.367z"></path>
			<path class="skin-col" style="fill: rgb(30, 18, 0);" d="M226.577,191.012c-20.81-11.405-35.788-2.398-36.328-1.798 c0.659-0.54,20.735-5.309,36.656,3.507c1.462,1.167,2.873,2.173,4.228,2.907L226.577,191.012z"></path>
		</g>
		<g class="hexatar-eye-left">
			<path class="white-obj" style="fill:#FFFFFF;" d="M286.01,198.726l2.456,0.26l23.527,0.551l12.116-4.928l-2.877-3.597 l-16.574-1.918l-16.876,3.296L286.01,198.726z"></path>
			<path class="shadow-obj" style="opacity: 0.3; fill: rgb(0, 0, 0);" d="M297.097,192.194c0.067-0.592,0.207-1.157,0.391-1.699 l6.853-1.339c0.171-0.016,0.337-0.026,0.506-0.039l8.043,0.93c0.495,1.225,0.718,2.579,0.56,3.984 c-0.251,2.234-1.377,4.157-2.995,5.469l-10.651-0.249C297.882,197.536,296.788,194.95,297.097,192.194z"></path>
			<circle class="col-obj" style="fill: rgb(17, 17, 17);" cx="305.274" cy="193.113" r="4.258"></circle>
			<circle class="white-obj" style="fill:#FFFFFF;" cx="302.354" cy="195.73" r="2.649"></circle>
			<path class="hair-col-2x" style="fill: rgb(5, 24, 21);" d="M322.31,191.493c3.657,0.898,6.294,0.659,8.033-0.719 c-3.657,0.719-6.774,0.36-9.292-1.019c-1.319-0.361-3.057-0.659-5.276-0.9c-1.079-0.18-4.915-0.3-11.57-0.36 c-2.518,0.3-13.085,2.333-17.053,4.227c0.033,0.022-1.279,5.646-1.279,5.646s1.752-5.325,1.906-5.377 c1.536-0.412,13.002-2.578,16.125-3.117c5.695-0.18,11.091,0.36,16.066,1.498c1.259,1.379,4.076,3.957,6.055,4.437 c2.338,0.419,7.673-1.44,7.913-1.559C333.7,194.309,325.967,194.43,322.31,191.493z"></path>
			<path class="skin-col-2x" style="fill: rgb(0, 0, 0);" d="M323.809,189.214c-0.54-0.6-15.518-9.607-36.328,1.798l-4.556,4.616 c1.355-0.734,2.766-1.74,4.228-2.907C303.074,183.905,323.15,188.674,323.809,189.214z"></path>
		</g>
	</g></g>
			<g id="hexatar-eyebrows"><g class="hexatar-base">
		<g class="hexatar-eyebrows-right"> 	<path class="col-obj" style="fill: rgb(15, 65, 59);" d="M191.416,162.211l-13.261,14.976l11.872-5.504l41.908,3.466l1.893-9.194 L191.416,162.211z M235.683,167.818l-2.537,7.581l2.751,0.159l4.422-7.031L235.683,167.818z"></path>
		</g>
		<g class="hexatar-eyebrows-left"> 	<path class="col-obj" style="fill: rgb(15, 65, 59);" d="M272.368,168.527l4.422,7.031l2.751-0.159l-2.537-7.581L272.368,168.527z M321.347,162.211l-42.412,3.744l1.893,9.194l41.908-3.466l11.872,5.504L321.347,162.211z"></path> 	<path class="shadow-obj" style="opacity: 0.4; fill: rgb(5, 24, 21);" d="M272.368,168.527l4.422,7.031l2.751-0.159l-2.537-7.581L272.368,168.527z M321.347,162.211l-42.412,3.744l1.893,9.194l41.908-3.466l11.872,5.504L321.347,162.211z"></path>
		</g>
	</g></g>	
		</g>
		<g id="hexatar-hair-front"><g class="element-front">
			<path class="col-obj" style="fill: rgb(67, 29, 0);" d="M256.214,6.901L153.605,71.357l0,97.612c0,0,20.098-71.316,23.73-107.927 c38.975,39.778,181.07,106.95,181.07,106.95l0-96.635L256.214,6.901z"></path>
			<path class="shadow-obj" style="opacity: 0.4; fill: rgb(16, 7, 0);" d="M256.214,6.901v108.008c49.859,28.342,102.192,53.083,102.192,53.083l0-26.589 V71.357L256.214,6.901z"></path>
			<g class="hair-ext" style="display: block;">
				<path class="col-obj" style="fill: rgb(67, 29, 0);" d="M156.593,74.205l99.615-62.574l99.21,62.574l2.988,93.787 c0,0,5.319-47.446,5.319-67.29c0-62.892-45.287-97.546-108.179-97.546S147.367,37.81,147.367,100.702 c0,20.516,6.238,68.266,6.238,68.266L156.593,74.205z"></path>
				<path class="shadow-obj" style="opacity: 0.4; fill: rgb(16, 7, 0);" d="M363.725,100.702c0-62.739-45.042-97.294-107.723-97.541v8.599l0.206-0.129 l99.21,62.574l2.988,93.787C358.406,167.992,363.725,120.546,363.725,100.702z"></path>
			</g>
		</g></g>
		<g id="hexatar-hat"></g>
		<g id="hexatar-eyeglasses"></g>
	</g>
	<desc>Avatar generated from Hexatar.com - created with Snap</desc><text transform="matrix(1 0 0 1 0 528)" font-size="12">Avatar generated from Hexatar.com</text></svg>