<svg width="512" height="512" id="hexatar-preview" version="1.1" xmlns="http://www.w3.org/2000/svg" xmlns:xlink="http://www.w3.org/1999/xlink" x="0px" y="0px" viewBox="0 0 512 512" style="enable-background:new 0 0 512 512;" xml:space="preserve">
    <g id="hexatar-background"><g class="hexatar-base">
		<rect class="col-obj" x="-0.003" y="0.002" style="fill: rgb(0, 167, 211);" width="512" height="512"></rect>
		<rect class="shadow-obj" x="255.946" y="0.002" style="opacity: 0.8; fill: rgb(0, 127, 160);" width="257.263" height="512"></rect>
	</g></g>
	<g id="hexatar-hair-rear"><g class="element-rear">
		<g class="hair-ext" style="display: block;">
			<path class="col-obj" style="fill: rgb(0, 75, 94);" d="M257.667,4.454c-72.179,0-134.5,72.02-142.857,199.122h280.087 C386.541,76.474,329.846,4.454,257.667,4.454z"></path>
			<path class="shadow-obj" style="opacity: 0.4; fill: rgb(0, 34, 43);" d="M257.667,4.454c-0.486,0-0.968,0.025-1.453,0.035l-0.213,199.088h138.896 C386.541,76.474,329.846,4.454,257.667,4.454z"></path>
		</g>
		<path class="col-obj" style="fill: rgb(0, 75, 94);" d="M113.797,234.836c0,107.97,34.304,235.763,83.532,277.164h115.048 c49.228-41.401,83.532-169.194,83.532-277.164c0-10.764-0.35-21.181-1.013-31.26c0,0-29.824-93.576-141.496-93.576 S114.81,203.576,114.81,203.576C114.147,213.656,113.797,224.072,113.797,234.836z"></path>
		<path class="shadow-obj" style="opacity: 0.4; fill: rgb(0, 34, 43);" d="M394.897,203.576c0,0-29.373-92.097-138.899-93.542V512h56.379 c49.228-41.401,83.532-169.194,83.532-277.164C395.91,224.072,395.56,213.656,394.897,203.576z"></path>
	</g></g>
	<g id="hexatar-bodies">
		<g id="hexatar-body">
			<polygon class="col-obj" style="fill: rgb(244, 225, 232);" points="380.515,465 301,451 301,334 211,334 211,451 131.636,465 94.115,512   418.035,512 "></polygon>
			<polygon class="shadow-obj" style="fill: rgb(230, 188, 203);" points="380.541,465 301,451 301,334 256,334 256,512 418.062,512 "></polygon>
			<polygon id="hexatar-neck-control" class="shadow-obj-2x" style="opacity: 0.5; fill: rgb(216, 151, 174);" points="301.054,387.482 255.998,427.693 210.942,384.615  210.942,333.485 301.054,333.485 "></polygon>
		</g>
		<g id="hexatar-clothes"><g class="hexatar-base">
		<polygon class="col-obj" style="fill: rgb(98, 237, 240);" points="382.805,464.994 329.298,446.821 329.298,403.669 256.039,433.515  182.739,403.669 182.739,446.821 129.243,464.994 92.159,511.994 419.839,511.994"></polygon>
		<path class="shadow-obj" style="opacity: 0.4; fill: rgb(51, 232, 236);" d="M92.159,511.994h45.42l-8.336-47L92.159,511.994z M382.805,464.994 l-8.285,47h45.318L382.805,464.994z"></path>
		<path class="shadow-obj" style="fill: rgb(51, 232, 236);" d="M210.924,415.145v-11.476h-28.184L210.924,415.145z M301.054,403.669v11.507 l28.244-11.507H301.054z"></path>
		<path class="white-obj" style="fill:#FFFFFF;" d="M247.377,492.237c-2.686,0-4.868,2.184-4.868,4.863 c0,2.688,2.182,4.863,4.868,4.863c2.686,0,4.863-2.175,4.863-4.863C252.241,494.421,250.063,492.237,247.377,492.237z M256.837,460.607l-30.603,15.465v35.922h9.781V482.09l20.822-10.523l20.823,10.523v29.905h9.781v-35.922L256.837,460.607z M266.299,492.237c-2.685,0-4.862,2.184-4.862,4.863c0,2.688,2.177,4.863,4.862,4.863c2.689,0,4.868-2.175,4.868-4.863 C271.167,494.421,268.988,492.237,266.299,492.237z"></path>
	</g></g>
	</g>
	<g id="hexatar-faces">
		<g id="hexatar-ears"><g class="hexatar-base">
		<g class="hexatar-ears-right"> 	<polygon class="col-obj" style="fill: rgb(244, 225, 232);" points="172.062,168.76 172.062,238.392 127.687,238.392 109.255,203.576  127.687,168.76"></polygon> 	<polygon class="shadow-obj" style="fill: rgb(230, 188, 203);" points="137.955,219.998 129.261,203.576 137.955,187.154 172.062,187.154  172.062,219.998"></polygon>
		</g>
		<g class="hexatar-ears-left"> 	<polygon class="shadow-obj" style="fill: rgb(230, 188, 203);" points="340.163,238.392 340.163,168.76 382.976,168.76 401.408,203.576  382.976,238.392"></polygon> 	<polygon class="shadow-obj-2x" style="fill: rgb(216, 151, 174);" points="372.708,187.154 381.402,203.576 372.708,219.998  340.163,219.998 340.163,187.154"></polygon>
		</g>
	</g></g>
		<g id="hexatar-face"><g class="hexatar-base">
		<path class="col-obj" style="fill: rgb(244, 225, 232);" d="M255.986,7.171l-102.4,64.185l0,202.679c0,11.644,3.45,23.027,9.913,32.712 l35.429,53.087c10.932,16.38,29.323,26.217,49.016,26.217h0.384h16.289c19.819,0,38.311-9.963,49.213-26.514l34.839-52.892 c6.338-9.623,9.716-20.893,9.716-32.415l0-202.874L255.986,7.171z"></path>
		<path class="shadow-obj" style="fill: rgb(230, 188, 203);" d="M255.986,7.171l-0.001,378.88h8.632h0c19.819,0,38.311-9.963,49.213-26.514 l34.839-52.892c6.338-9.623,9.716-20.893,9.716-32.415l0-202.874L255.986,7.171z"></path>
	</g></g>
		<g id="hexatar-mouth"><g class="hexatar-base">
	<path class="col-obj" style="fill: rgb(0, 202, 206);" d="M220.384,311.877h71.912l-19.959,13.492c-3.382,2.286-7.371,3.508-11.454,3.508 h-9.088c-4.082,0-8.071-1.222-11.454-3.508L220.384,311.877z"></path>
	<path class="shadow-obj" style="fill: rgb(0, 152, 155);" d="M262.625,296.236l-6.285,6.878l-6.285-6.878l-8.244,0.038 c-2.455,0.011-4.865,0.666-6.988,1.898l-23.625,13.705h90.285l-24.274-13.834c-2.141-1.22-4.565-1.856-7.029-1.844L262.625,296.236 z"></path>
</g></g>
		<g id="hexatar-beard"></g>
		<g id="hexatar-mustache"></g>
		<g id="hexatar-nose"><g class="hexatar-base">
		<polygon class="shadow-obj" style="fill: rgb(230, 188, 203);" points="273.806,239.281 262.701,172.435 249.3,172.435 238.196,239.281  232.482,239.281 227.055,255.459 233.14,256.886 237.108,254.618 250.825,264.281 260.963,264.281 274.253,255.561  278.008,257.916 284.946,255.459 279.519,239.281"></polygon>
		<polygon class="shadow-obj-2x" style="fill: rgb(216, 151, 174);" points="273.806,239.281 262.701,172.435 256.001,172.435 256.001,264.281  260.963,264.281 274.253,255.561 278.008,257.916 284.946,255.459 279.519,239.281"></polygon>
	</g></g>
		<g id="hexatar-eyeGroup">
			<g id="hexatar-eye"><g class="hexatar-base">
		<g class="hexatar-eye-right">
			<path class="white-obj" style="fill:#FFFFFF;" d="M227.99,197.217c0,0-2.58-5.186-8.324-6.868c-17.218-1.732-31.942,0-31.942,0 s6.967,11.753,18.431,12.083c11.464,0.33,19.778-3.719,19.778-3.719s1.337,0.721,2.057,0.25S227.99,197.217,227.99,197.217z"></path>
			<path class="shadow-obj" style="opacity: 0.3; fill: rgb(45, 164, 212);" d="M216.969,191.291c-0.14-0.607-0.354-1.177-0.618-1.712 c-5.883-0.811-10.724-0.278-14.396,0.659c-0.546,1.416-0.689,3.004-0.322,4.594c0.978,4.235,5.203,6.875,9.438,5.898 C215.306,199.751,217.947,195.526,216.969,191.291z"></path>
			<circle class="col-obj" style="fill: rgb(87, 182, 221);" cx="209.301" cy="193.061" r="4.073"></circle>
			<circle class="white-obj" style="fill:#FFFFFF;" cx="206.756" cy="195.874" r="2.001"></circle>
			<path class="hair-col" style="fill: rgb(66, 66, 66);" d="M220.261,189.115c-8.812-0.547-15.912-0.426-21.209-0.098 c-5.146-0.204-11.566-2.324-13.26-4.764c0.721,3.149,5.048,4.426,5.048,4.426s-7.347-0.21-9.598-2.369 c2.53,5.235,9.786,8.103,9.786,8.103l-3.304-4.063c0,0,18.326-0.114,32.35,0.76c3.459,1.033,7.916,6.108,7.916,6.108 S225.3,191.11,220.261,189.115z"></path>
			<path class="skin-col" style="fill: rgb(216, 151, 174);" d="M228.676,192.731c0,0-2.388-4.883-7.667-7.418 c-11.679,0.168-22.044,2.332-25.489,3.128c2.999-0.379,10.673-1.122,25.177-1.819 C223.775,187.855,228.676,192.731,228.676,192.731z"></path>
		</g>
		<g class="hexatar-eye-left">
			<path class="white-obj" style="fill:#FFFFFF;" d="M286.316,197.217c0,0,2.58-5.186,8.324-6.868c17.218-1.732,31.942,0,31.942,0 s-6.967,11.753-18.431,12.083c-11.464,0.33-19.778-3.719-19.778-3.719s-1.337,0.721-2.057,0.25 C285.596,198.493,286.316,197.217,286.316,197.217z"></path>
			<path class="shadow-obj" style="opacity: 0.3; fill: rgb(45, 164, 212);" d="M297.337,191.291c0.14-0.607,0.354-1.177,0.618-1.712 c5.883-0.811,10.724-0.278,14.396,0.659c0.546,1.416,0.689,3.004,0.322,4.594c-0.978,4.235-5.203,6.875-9.438,5.898 C299,199.751,296.36,195.526,297.337,191.291z"></path>
			<circle class="col-obj" style="fill: rgb(87, 182, 221);" cx="305.005" cy="193.061" r="4.073"></circle>
			<circle class="white-obj" style="fill:#FFFFFF;" cx="307.55" cy="195.874" r="2.001"></circle>
			<path class="hair-col-2x" style="fill: rgb(40, 40, 40);" d="M323.466,188.679c0,0,4.328-1.277,5.048-4.426 c-1.695,2.441-8.206,4.735-13.26,4.764c-5.297-0.328-12.397-0.45-21.209,0.098c-5.039,1.995-7.729,8.103-7.729,8.103 s4.457-5.074,7.916-6.108c14.024-0.873,32.35-0.76,32.35-0.76l-3.304,4.063c0,0,7.256-2.868,9.786-8.103 C330.813,188.469,323.466,188.679,323.466,188.679z"></path>
			<path class="skin-col" style="fill: rgb(216, 151, 174);" d="M318.808,188.446c-3.42-0.792-13.806-2.966-25.511-3.134 c-5.279,2.535-7.667,7.418-7.667,7.418s4.901-4.876,7.979-6.109C308.16,187.321,315.831,188.068,318.808,188.446z"></path>
		</g>
	</g></g>
			<g id="hexatar-eyebrows"><g class="hexatar-base">
		<g class="hexatar-eyebrows-right"> 	<path class="col-obj" style="fill: rgb(66, 66, 66);" d="M182.905,167.553l10.957-3.576l10.134,3.022l3.458,1.732 c6.944,3.477,14.489,5.593,22.228,6.233l2.253,0.186l0,0c-1.587-5.55-6.403-9.567-12.147-10.135l-3.113-0.308l-0.753-0.276 c-7.834-2.874-16.175-4.111-24.506-3.636h0L182.905,167.553z"></path>
		</g>
		<g class="hexatar-eyebrows-left"> 	<path class="col-obj" style="fill: rgb(66, 66, 66);" d="M329.858,167.553l-10.957-3.576l-10.134,3.022l-3.458,1.732 c-6.944,3.477-14.489,5.593-22.228,6.233l-2.253,0.186l0,0c1.587-5.55,6.403-9.567,12.147-10.135l3.113-0.308l0.753-0.276 c7.834-2.874,16.175-4.111,24.506-3.636h0L329.858,167.553z"></path> 	<path class="shadow-obj" style="opacity: 0.4; fill: rgb(40, 40, 40);" d="M329.858,167.553l-10.957-3.576l-10.134,3.022l-3.458,1.732 c-6.944,3.477-14.489,5.593-22.228,6.233l-2.253,0.186l0,0c1.587-5.55,6.403-9.567,12.147-10.135l3.113-0.308l0.753-0.276 c7.834-2.874,16.175-4.111,24.506-3.636h0L329.858,167.553z"></path>
		</g>
	</g></g>	
		</g>
		<g id="hexatar-hair-front"><g class="element-front">
		<g class="hair-ext" style="display: block;">
			<path class="col-obj" style="fill: rgb(0, 75, 94);" d="M153.605,168.968l14.161-89.848l88.448-51.811l88.377,53.531l13.815,87.151 h32.693C375.332,63.122,322.808,4.454,257.667,4.454c-65.345,0-122.607,59.029-139.067,164.514H153.605z"></path>
			<path class="shadow-obj" style="opacity: 0.4; fill: rgb(0, 34, 43);" d="M256.214,27.31l88.377,53.531l13.815,87.151h32.693 C375.332,63.122,322.808,4.454,257.667,4.454c-0.486,0-0.968,0.025-1.453,0.035l-0.024,22.835L256.214,27.31z"></path>
		</g>
		<path class="col-obj" style="fill: rgb(0, 75, 94);" d="M256.214,6.625L153.605,71l0,97.968c0,0,9.157-51.422,30.62-78.038 c29.67,59.521,76.309,87.83,174.18,77.061l0-96.992L256.214,6.625z"></path>
		<path class="shadow-obj" style="opacity: 0.4; fill: rgb(0, 34, 43);" d="M256.214,6.625v153.612c26.12,9.675,59.215,12.484,102.192,7.755l0-96.992 L256.214,6.625z"></path>
	</g></g>
		<g id="hexatar-hat"></g>
		<g id="hexatar-eyeglasses"></g>
	</g>
	<desc>Avatar generated from Hexatar.com - created with Snap</desc><text transform="matrix(1 0 0 1 0 528)" font-size="12">Avatar generated from Hexatar.com</text></svg>