<svg width="512" height="512" id="hexatar-preview" version="1.1" xmlns="http://www.w3.org/2000/svg" xmlns:xlink="http://www.w3.org/1999/xlink" x="0px" y="0px" viewBox="0 0 512 512" style="enable-background:new 0 0 512 512;" xml:space="preserve">
    <g id="hexatar-background"><g class="hexatar-base">
		<rect class="col-obj" x="-0.003" y="0.002" style="fill: rgb(153, 153, 153);" width="512" height="512"></rect>
		<path class="shadow-obj" style="fill: rgb(128, 128, 128);" d="M0,398.222h512v-56.889H0V398.222z M0,512h512v-56.889H0V512z M0,284.444h512 v-56.889H0V284.444z M0,0v56.889h512V0H0z M0,170.666h512v-56.889H0V170.666z"></path>
	</g></g>
	<g id="hexatar-hair-rear"><g class="element-rear">
				<path class="col-obj" style="fill: rgb(253, 186, 35);" d="M417.382,412.576c-2.49-17.337-18.446-27.868-29.684-37.527 c-12.194-10.48-24.493-27.629-16.568-45.826c5.268-12.094,18.588-17.175,23.704-29.675 c15.847-38.726-60.873-76.971-35.582-111.543c0.005-0.007-209.591-0.007-209.586,0c25.291,34.572-51.429,72.817-35.582,111.543 c5.115,12.5,18.436,17.581,23.704,29.675c7.925,18.196-4.375,35.345-16.568,45.826c-11.238,9.659-27.194,20.19-29.684,37.527 c-4.882,34.021,28.248,48.844,50.766,59.917c59.208,29.116,165.108,29.116,224.316,0 C389.134,461.42,422.263,446.597,417.382,412.576z"></path>
			<path class="shadow-obj" style="opacity: 0.4; fill: rgb(235, 163, 2);" d="M417.382,412.576c-2.49-17.337-18.446-27.868-29.684-37.527 c-12.193-10.48-24.493-27.629-16.568-45.826c5.268-12.094,18.588-17.175,23.704-29.675 c15.847-38.726-60.873-76.971-35.582-111.543c0.003-0.003-51.373-0.005-103.252-0.005v306.322 c40.761-0.179,81.381-7.452,110.617-21.829C389.134,461.42,422.263,446.597,417.382,412.576z"></path>
			<g class="hair-ext" style="display: none;">
			</g>
		</g></g>
	<g id="hexatar-bodies">
		<g id="hexatar-body">
			<polygon class="col-obj" style="fill:#FCE2E1;" points="380.515,465 301,451 301,334 211,334 211,451 131.636,465 94.115,512   418.035,512 "></polygon>
			<polygon class="shadow-obj" style="fill: rgb(247, 181, 179);" points="380.541,465 301,451 301,334 256,334 256,512 418.062,512 "></polygon>
			<polygon id="hexatar-neck-control" class="shadow-obj-2x" style="opacity: 0.5; fill: rgb(242, 136, 133);" points="301.054,387.482 255.998,427.693 210.942,384.615  210.942,333.485 301.054,333.485 "></polygon>
		</g>
		<g id="hexatar-clothes"><g class="hexatar-base">
		<path class="col-obj" style="fill: rgb(204, 0, 0);" d="M279.123,502.345c-48.989,0-101.125-28.713-124.327-43.211l-25.552,5.855 l-37.084,47h327.68l-23.994-29.289C369.22,488.505,324.139,502.345,279.123,502.345z"></path>
	</g></g>
	</g>
	<g id="hexatar-faces">
		<g id="hexatar-ears"><g class="hexatar-base">
		<g class="hexatar-ears-right"> 	<polygon class="col-obj" style="fill:#FCE2E1;" points="172.046,162.41 172.046,244.742 155.235,244.742 115.324,187.268  132.991,162.41"></polygon> 	<polygon class="shadow-obj" style="fill: rgb(247, 181, 179);" points="172.046,173.299 172.046,227.539 157.864,227.539 129.571,189.675  140.913,173.299"></polygon>
		</g>
		<g class="hexatar-ears-left"> 	<polygon class="shadow-obj" style="fill: rgb(247, 181, 179);" points="339.621,244.742 339.621,162.41 377.672,162.41 395.338,187.268  355.428,244.742"></polygon> 	<polygon class="shadow-obj-2x" style="fill: rgb(242, 136, 133);" points="339.621,227.852 339.621,172.985 370.453,172.985 381.925,189.55  353.306,227.852"></polygon>
		</g>
	</g></g>
		<g id="hexatar-face"><g class="hexatar-base">
		<path class="col-obj" style="fill:#FCE2E1;" d="M255.986,7.171l-102.4,64.185l0,215.98c0,21.911,10.554,42.48,28.353,55.259 l56.415,40.502c2.676,1.921,5.886,2.954,9.18,2.954h17.668c3.329,0,6.572-1.055,9.263-3.014l55.927-40.708 c17.589-12.802,27.993-33.244,27.993-54.999l0-215.974L255.986,7.171z"></path>
		<path class="shadow-obj" style="fill: rgb(247, 181, 179);" d="M255.986,7.171l-0.001,378.88h9.216c3.329,0,6.572-1.055,9.263-3.014 l55.928-40.708c17.589-12.802,27.993-33.244,27.993-54.999l0-215.974L255.986,7.171z"></path>
	</g></g>
		<g id="hexatar-mouth"><g class="hexatar-base">
		<path class="col-obj" style="fill: rgb(199, 15, 55);" d="M220.384,310.507h71.913l-15.434,11.144c-2.841,2.051-6.255,3.155-9.759,3.155 h-21.527c-3.504,0-6.918-1.104-9.759-3.155L220.384,310.507z"></path>
		<path class="shadow-obj" style="fill: rgb(152, 11, 42);" d="M260.984,303.468h-9.288l-7.381-3.216c-3.864-1.684-8.268-1.609-12.072,0.204 l-21.046,10.031h90.285l-21.261-10.094c-3.876-1.84-8.366-1.876-12.271-0.098L260.984,303.468z"></path>
	</g></g>
		<g id="hexatar-beard"></g>
		<g id="hexatar-mustache"></g>
		<g id="hexatar-nose"><g class="hexatar-base">
		<polygon class="shadow-obj" style="fill: rgb(247, 181, 179);" points="271.118,238.727 261.69,180.775 250.312,180.775 240.883,238.727  236.032,238.727 231.425,252.463 237.569,257.069 240.677,256.214 249.857,266.281 256.001,266.281 262.145,266.281  271.325,256.214 274.433,257.069 280.577,252.463 275.969,238.727"></polygon>
		<polygon class="shadow-obj-2x" style="fill: rgb(242, 136, 133);" points="271.118,238.727 261.69,180.775 256.001,180.775 256.001,266.281  262.145,266.281 271.325,256.214 274.433,257.069 280.577,252.463 275.969,238.727"></polygon>
	</g></g>
		<g id="hexatar-eyeGroup">
			<g id="hexatar-eye"><g class="hexatar-base">
		<g class="hexatar-eye-right">
			<path class="white-obj" style="fill:#FFFFFF;" d="M228.119,199.084c0.083-0.185-2.219-13.758-21.621-13.758 c-16.289,0-24.102,10.544-24.102,10.544s6.213,10.298,21.412,10.298s20.463-4.703,20.463-4.703S229.041,203.287,228.119,199.084z"></path>
			<circle class="shadow-obj" style="opacity: 0.3; fill: rgb(0, 115, 129);" cx="205.317" cy="193.382" r="7.892"></circle>
			<circle class="col-obj" style="fill: rgb(0, 160, 180);" cx="205.317" cy="193.382" r="3.69"></circle>
			<circle class="white-obj" style="fill:#FFFFFF;" cx="202.332" cy="196.089" r="2.295"></circle>
			<path class="hair-col" style="fill: rgb(66, 66, 66);" d="M206.103,184.068c-11.64,0-17.734,3.93-20.813,7.255l0.006-0.009 c0,0-4.691,0.737-7.241-1.622c0.541,4.132,3.929,3.69,3.929,3.69s-6.247,1.836-9.415,0.411c4.018,6.379,9.826,2.076,9.826,2.076 s9.886-9.383,23.553-9.383c15.994,0,22.17,12.596,22.17,12.596S226.27,184.068,206.103,184.068z"></path>
		</g>
		<g class="hexatar-eye-left">
			<path class="white-obj" style="fill:#FFFFFF;" d="M283.119,199.084c-0.083-0.185,2.219-13.758,21.621-13.758 c16.289,0,24.102,10.544,24.102,10.544s-6.213,10.298-21.412,10.298c-15.199,0-20.463-4.703-20.463-4.703 S282.197,203.287,283.119,199.084z"></path>
			<circle class="shadow-obj" style="opacity: 0.3; fill: rgb(0, 115, 129);" cx="305.921" cy="193.382" r="7.892"></circle>
			<circle class="col-obj" style="fill: rgb(0, 160, 180);" cx="305.921" cy="193.382" r="3.69"></circle>
			<circle class="white-obj" style="fill:#FFFFFF;" cx="308.906" cy="196.089" r="2.295"></circle>
			<path class="hair-col-2x" style="fill: rgb(40, 40, 40);" d="M305.134,184.068c11.64,0,17.734,3.93,20.813,7.255l-0.006-0.009 c0,0,4.691,0.737,7.241-1.622c-0.541,4.132-3.929,3.69-3.929,3.69s6.247,1.836,9.415,0.411c-4.018,6.379-9.826,2.076-9.826,2.076 s-9.886-9.383-23.553-9.383c-15.994,0-22.17,12.596-22.17,12.596S284.967,184.068,305.134,184.068z"></path>
		</g>
	</g></g>
			<g id="hexatar-eyebrows"><g class="hexatar-base">
		<g class="hexatar-eyebrows-right"> 	<path class="col-obj" style="fill: rgb(66, 66, 66);" d="M182.905,167.553l10.957-3.576l10.134,3.022l3.458,1.732 c6.944,3.477,14.489,5.593,22.228,6.233l2.253,0.186l0,0c-1.587-5.55-6.403-9.567-12.147-10.135l-3.113-0.308l-0.753-0.276 c-7.834-2.874-16.175-4.111-24.506-3.636h0L182.905,167.553z"></path>
		</g>
		<g class="hexatar-eyebrows-left"> 	<path class="col-obj" style="fill: rgb(66, 66, 66);" d="M329.858,167.553l-10.957-3.576l-10.134,3.022l-3.458,1.732 c-6.944,3.477-14.489,5.593-22.228,6.233l-2.253,0.186l0,0c1.587-5.55,6.403-9.567,12.147-10.135l3.113-0.308l0.753-0.276 c7.834-2.874,16.175-4.111,24.506-3.636h0L329.858,167.553z"></path> 	<path class="shadow-obj" style="opacity: 0.4; fill: rgb(40, 40, 40);" d="M329.858,167.553l-10.957-3.576l-10.134,3.022l-3.458,1.732 c-6.944,3.477-14.489,5.593-22.228,6.233l-2.253,0.186l0,0c1.587-5.55,6.403-9.567,12.147-10.135l3.113-0.308l0.753-0.276 c7.834-2.874,16.175-4.111,24.506-3.636h0L329.858,167.553z"></path>
		</g>
	</g></g>	
		</g>
		<g id="hexatar-hair-front"><g class="element-front">
			<path class="col-obj" style="fill: rgb(253, 186, 35);" d="M364.515,196.984c-5.258-5.608-6.226-11.929-5.545-19.516 c0.274-3.052,0.967-7.593-0.564-10.708l0-95.403L256.214,6.901L153.605,71.357l0,97.612c0,0,0.026-0.019,0.069-0.051 c-0.55,2.826-0.076,6.149,0.14,8.55c0.68,7.588-0.287,13.908-5.545,19.516c-4.121,4.395-9.05,8.462-7.265,15.177 c1.015,3.82,3.723,7.016,6.905,9.361c6.499,4.791,15.93,6.674,18.581,15.462c1.319,4.374-0.234,10.115-4.651,11.283 c4.263-0.945,8.381-4.229,9.555-8.436c1.348-4.833-0.578-8.619-3.573-11.766c-1.793-1.884-3.969-3.54-6.056-5.055 c-7.43-5.394-7.325-11.528-0.919-18.537c5.804-6.35,9.941-10.786,7.417-19.908c-1.776-6.419-5.386-10.999-5.077-17.935 c0.081-1.818,0.383-3.615,0.847-5.366c22.399-16.709,74.444-56.453,91.118-77.13c23.308,46.759,73.711,71.799,94.257,80.389 c0.09,0.699,0.159,1.401,0.19,2.107c0.309,6.936-3.301,11.515-5.077,17.935c-2.524,9.122,1.613,13.558,7.417,19.908 c6.406,7.009,6.511,13.143-0.919,18.537c-2.086,1.515-4.263,3.17-6.056,5.055c-2.995,3.147-4.92,6.933-3.573,11.766 c1.173,4.207,5.291,7.491,9.555,8.436c-4.416-1.168-5.97-6.91-4.651-11.283c2.651-8.788,12.082-10.671,18.581-15.462 c3.182-2.346,5.89-5.541,6.905-9.361C373.565,205.447,368.636,201.38,364.515,196.984z"></path>
			<path class="shadow-obj" style="opacity: 0.4; fill: rgb(235, 163, 2);" d="M364.515,196.984c-5.258-5.608-6.226-11.929-5.545-19.516 c0.274-3.052,0.967-7.593-0.564-10.708l0-95.403L256.214,6.901l-0.282,0.177v78.549c23.629,45.791,73.152,70.4,93.476,78.897 c0.09,0.699,0.159,1.401,0.19,2.107c0.309,6.936-3.301,11.515-5.077,17.935c-2.524,9.122,1.613,13.558,7.417,19.908 c6.406,7.009,6.511,13.143-0.919,18.537c-2.086,1.515-4.263,3.17-6.056,5.055c-2.995,3.147-4.92,6.933-3.573,11.766 c1.173,4.207,5.291,7.491,9.555,8.436c-4.416-1.168-5.97-6.91-4.651-11.283c2.651-8.788,12.082-10.671,18.581-15.462 c3.182-2.346,5.89-5.541,6.905-9.361C373.565,205.447,368.636,201.38,364.515,196.984z"></path>
			<g class="hair-ext" style="display: none;">
				<path class="col-obj" style="fill: rgb(253, 186, 35);" d="M153.814,177.468c0-84.233,44.146-146.392,101.209-146.392 c57.064,0,103.323,68.284,103.323,152.518c0,0,9.99-22.537,9.99-69.828c0-78.094-45.675-109.67-113.313-109.67 S141.71,35.672,141.71,113.766C141.71,159.62,153.814,177.468,153.814,177.468z"></path>
				<path class="shadow-obj" style="opacity: 0.4; fill: rgb(235, 163, 2);" d="M368.337,113.766c0-77.595-45.097-109.259-112.023-109.661V31.1 c56.468,1.022,102.033,68.897,102.033,152.493C358.347,183.594,368.337,161.66,368.337,113.766z"></path>
			</g>
		</g></g>
		<g id="hexatar-hat"><g class="hexatar-base">
		<path class="col-obj" style="fill: rgb(204, 0, 0);" d="M331.696,11.157L286.554-1.292c-19.995-5.514-41.111-5.514-61.106,0l-45.143,12.449 c-10.879,3-18.306,22.754-17.997,34.035l0.063,2.302l-6.025,6.734c-2.577,2.88-4.096,6.552-4.308,10.411l-4.924,89.757L153,164.723 c0,0,28.335-49.574,101.994-49.574S359,165.387,359,165.387l5.885-10.992l-4.924-89.757c-0.212-3.859-1.731-7.53-4.308-10.411 l-6.024-6.734l0.063-2.302C350.002,33.911,342.575,14.157,331.696,11.157z"></path>
		<path class="shadow-obj" style="opacity: 0.4; fill: rgb(153, 0, 0);" d="M172.333,42.668c0,0,33.18-18.64,82.95-18.64 s81.649,15.841,81.649,15.841S311.541,19.48,255.546,19.48S172.333,42.668,172.333,42.668z"></path>
	</g></g>
		<g id="hexatar-eyeglasses"></g>
	</g>
	<desc>Avatar generated from Hexatar.com - created with Snap</desc><text transform="matrix(1 0 0 1 0 528)" font-size="12">Avatar generated from Hexatar.com</text></svg>