<svg width="512" height="512" id="hexatar-preview" version="1.1" xmlns="http://www.w3.org/2000/svg" xmlns:xlink="http://www.w3.org/1999/xlink" x="0px" y="0px" viewBox="0 0 512 512" style="enable-background:new 0 0 512 512;" xml:space="preserve">
    <g id="hexatar-background"><g class="hexatar-base">
		<rect class="col-obj" x="-0.003" y="0.002" style="fill: rgb(253, 187, 199);" width="512" height="512"></rect>
		<path class="light-obj" style="fill: rgb(254, 237, 240);" d="M195.797,225.862c-17.108,0-31.003,13.911-31.003,30.969 c0,17.122,13.896,30.974,31.003,30.974c17.107,0,30.973-13.852,30.973-30.974C226.77,239.773,212.904,225.862,195.797,225.862z M316.302,287.805c17.127,0,31.006-13.852,31.006-30.974c0-17.058-13.878-30.969-31.006-30.969 c-17.102,0-30.968,13.911-30.968,30.969C285.334,273.953,299.201,287.805,316.302,287.805z M256.045,24.422l-194.902,98.49 v267.822l194.902,98.511l194.912-98.511V122.912L256.045,24.422z M388.663,352.429l-132.618,67.019l-132.608-67.019V161.238 l132.608-67.019l132.618,67.019V352.429z"></path>
	</g></g>
	<g id="hexatar-hair-rear"><g class="element-rear">
			<path class="col-obj" style="fill: rgb(132, 80, 0);" d="M398.965,397.366c15.308-9.487,25.508-26.431,25.508-45.764 c0-24.218-16.001-44.695-38.006-51.447c12.299-9.862,20.183-25.004,20.183-41.995c0-27.839-21.141-50.739-48.244-53.524v-66.308 H153.608v66.294c-27.172,2.719-48.388,25.65-48.388,53.538c0,16.991,7.883,32.133,20.183,41.995 c-22.005,6.752-38.006,27.229-38.006,51.447c0,19.333,10.201,36.277,25.508,45.764c-21.564,7.014-37.156,27.266-37.156,51.17 c0,29.719,24.092,53.81,53.81,53.81c20.815,0,231.937,0,252.752,0c29.719,0,53.81-24.092,53.81-53.81 C436.12,424.632,420.529,404.38,398.965,397.366z"></path>
			<path class="shadow-obj" style="opacity: 0.4; fill: rgb(81, 49, 0);" d="M398.965,397.366c15.308-9.487,25.508-26.431,25.508-45.764 c0-24.218-16.001-44.695-38.006-51.447c12.299-9.862,20.183-25.004,20.183-41.995c0-27.839-21.141-50.739-48.244-53.524v-66.308 H256v364.018h126.31c29.719,0,53.81-24.092,53.81-53.81C436.12,424.632,420.529,404.38,398.965,397.366z"></path>
			<g class="hair-ext" style="display: block;">
				<path class="col-obj" style="fill: rgb(132, 80, 0);" d="M179.561,96.4c-29.719,0-53.81,24.092-53.81,53.81s24.092,53.81,53.81,53.81 s53.81-24.092,53.81-53.81S209.279,96.4,179.561,96.4z M323.315,102.638c-32.087,0-58.099,26.012-58.099,58.099 c0,32.087,26.012,58.099,58.099,58.099c32.087,0,58.099-26.012,58.099-58.099C381.414,128.649,355.403,102.638,323.315,102.638z"></path>
				<circle class="shadow-obj" style="opacity: 0.4; fill: rgb(81, 49, 0);" cx="323.315" cy="160.737" r="58.099"></circle>
			</g>
		</g></g>
	<g id="hexatar-bodies">
		<g id="hexatar-body">
			<polygon class="col-obj" style="fill: rgb(252, 226, 225);" points="380.515,465 301,451 301,334 211,334 211,451 131.636,465 94.115,512   418.035,512 "></polygon>
			<polygon class="shadow-obj" style="fill: rgb(247, 181, 179);" points="380.541,465 301,451 301,334 256,334 256,512 418.062,512 "></polygon>
			<polygon id="hexatar-neck-control" class="shadow-obj-2x" style="opacity: 0.5; fill: rgb(242, 136, 133);" points="301.054,387.482 255.998,427.693 210.942,384.615  210.942,333.485 301.054,333.485 "></polygon>
		</g>
		<g id="hexatar-clothes"><g class="hexatar-base">
		<polygon class="static-obj" style="fill:#E6E6E6;" points="382.951,464.994 315.28,435.317 272.093,468.642 255.41,494.077  240.179,468.758 196.75,435.317 129.354,464.994 92.159,511.994 420.146,511.997"></polygon>
		<path class="col-obj" style="fill: rgb(205, 106, 146);" d="M180.319,442.543c0,0,13.827,38.79,76.02,38.79s74.197-39.307,74.197-39.307 l52.415,22.968l37.196,47.003L92.159,512l37.196-47.006L180.319,442.543z"></path>
		<path class="shadow-obj-2x" style="fill: rgb(156, 53, 94);" d="M256.345,489.168c57.274,0,78.666-29.195,85.373-42.26l-11.182-4.882 c0,0-12.004,39.307-74.197,39.307s-76.02-38.79-76.02-38.79l-11.216,4.952C176.412,460.403,199.116,489.168,256.345,489.168z"></path>
		<path class="white-obj" style="fill:#FFFFFF;" d="M301.023,411.456v14.445l-28.93,42.741l31.868,16.174l11.319-49.5 L301.023,411.456z M211.014,411.456l-14.264,23.861l11.966,49.5l31.463-16.058l-29.208-43.061L211.014,411.456z"></path>
	</g></g>
	</g>
	<g id="hexatar-faces">
		<g id="hexatar-ears"><g class="hexatar-base">
		<g class="hexatar-ears-right"> 	<polygon class="col-obj" style="fill:#FCE2E1;" points="172.062,157.705 172.062,249.447 127.687,249.447 109.255,182.563  127.687,157.705"></polygon> 	<polygon class="shadow-obj" style="fill: rgb(247, 181, 179);" points="172.062,172.337 172.062,234.815 139.829,234.815 127.277,189.266  139.829,172.337"></polygon>
		</g>
		<g class="hexatar-ears-left"> 	<polygon class="shadow-obj" style="fill: rgb(247, 181, 179);" points="339.621,249.447 339.621,157.705 382.976,157.705 401.408,182.563  382.976,249.447"></polygon> 	<polygon class="shadow-obj-2x" style="fill: rgb(242, 136, 133);" points="339.621,234.836 339.621,172.316 369.166,172.316  381.727,189.256 369.166,234.836"></polygon>
		</g>
	</g></g>
		<g id="hexatar-face"><g class="hexatar-base">
		<path class="col-obj" style="fill: rgb(252, 226, 225);" d="M255.986,7.171l-102.4,64.185l0,243.722c0,22.811,12.509,43.785,32.578,54.627 l15.003,8.105c10.014,5.41,21.217,8.242,32.599,8.242h45.056c11.51,0,22.835-2.897,32.931-8.423l14.353-7.856 c19.902-10.893,32.278-31.775,32.278-54.463l0-243.953L255.986,7.171z"></path>
		<path class="shadow-obj" style="fill: rgb(247, 181, 179);" d="M255.986,7.171l-0.001,378.88h22.837c11.51,0,22.835-2.897,32.931-8.423 l14.353-7.856c19.902-10.893,32.278-31.775,32.278-54.463l0-243.953L255.986,7.171z"></path>
	</g></g>
		<g id="hexatar-mouth"><g class="hexatar-base">
		<path class="col-obj" style="fill: rgb(225, 83, 76);" d="M220.384,310.439h71.913l-11.465,12.287c-3.215,3.445-7.715,5.401-12.427,5.401 h-24.128c-4.712,0-9.212-1.956-12.427-5.401L220.384,310.439z"></path>
		<path class="white-obj" style="fill:#FFFFFF;" d="M238.362,310.439h35.956l-6.531,4.688c-1.119,0.803-2.462,1.235-3.84,1.235 h-15.214c-1.378,0-2.72-0.432-3.84-1.235L238.362,310.439z"></path>
		<path class="shadow-obj" style="fill: rgb(214, 44, 36);" d="M256.221,303.468l-5.904-3.265c-2.986-1.651-6.545-1.913-9.74-0.717l-29.379,11 h90.285l-29.639-11.084c-3.24-1.212-6.851-0.924-9.858,0.787L256.221,303.468z"></path>
	</g></g>
		<g id="hexatar-beard"></g>
		<g id="hexatar-mustache"></g>
		<g id="hexatar-nose"><g class="hexatar-base">
		<polygon class="shadow-obj" style="fill: rgb(247, 181, 179);" points="271.118,238.727 261.69,180.775 250.312,180.775 240.883,238.727  236.032,238.727 231.425,252.463 237.569,257.069 240.677,256.214 249.857,266.281 256.001,266.281 262.145,266.281  271.325,256.214 274.433,257.069 280.577,252.463 275.969,238.727"></polygon>
		<polygon class="shadow-obj-2x" style="fill: rgb(242, 136, 133);" points="271.118,238.727 261.69,180.775 256.001,180.775 256.001,266.281  262.145,266.281 271.325,256.214 274.433,257.069 280.577,252.463 275.969,238.727"></polygon>
	</g></g>
		<g id="hexatar-eyeGroup">
			<g id="hexatar-eye"><g class="hexatar-base">
		<g class="hexatar-eye-right">
			<path class="white-obj" style="fill:#FFFFFF;" d="M228.119,199.084c0.083-0.185-2.219-13.758-21.621-13.758 c-16.289,0-24.102,10.544-24.102,10.544s6.213,10.298,21.412,10.298s20.463-4.703,20.463-4.703S229.041,203.287,228.119,199.084z"></path>
			<circle class="shadow-obj" style="opacity: 0.3; fill: rgb(0, 0, 0);" cx="205.317" cy="193.382" r="7.892"></circle>
			<circle class="col-obj" style="fill: rgb(17, 17, 17);" cx="205.317" cy="193.382" r="3.69"></circle>
			<circle class="white-obj" style="fill:#FFFFFF;" cx="202.332" cy="196.089" r="2.295"></circle>
			<path class="hair-col" style="fill: rgb(66, 66, 66);" d="M206.103,184.068c-11.64,0-17.734,3.93-20.813,7.255l0.006-0.009 c0,0-4.691,0.737-7.241-1.622c0.541,4.132,3.929,3.69,3.929,3.69s-6.247,1.836-9.415,0.411c4.018,6.379,9.826,2.076,9.826,2.076 s9.886-9.383,23.553-9.383c15.994,0,22.17,12.596,22.17,12.596S226.27,184.068,206.103,184.068z"></path>
		</g>
		<g class="hexatar-eye-left">
			<path class="white-obj" style="fill:#FFFFFF;" d="M283.119,199.084c-0.083-0.185,2.219-13.758,21.621-13.758 c16.289,0,24.102,10.544,24.102,10.544s-6.213,10.298-21.412,10.298c-15.199,0-20.463-4.703-20.463-4.703 S282.197,203.287,283.119,199.084z"></path>
			<circle class="shadow-obj" style="opacity: 0.3; fill: rgb(0, 0, 0);" cx="305.921" cy="193.382" r="7.892"></circle>
			<circle class="col-obj" style="fill: rgb(17, 17, 17);" cx="305.921" cy="193.382" r="3.69"></circle>
			<circle class="white-obj" style="fill:#FFFFFF;" cx="308.906" cy="196.089" r="2.295"></circle>
			<path class="hair-col-2x" style="fill: rgb(40, 40, 40);" d="M305.134,184.068c11.64,0,17.734,3.93,20.813,7.255l-0.006-0.009 c0,0,4.691,0.737,7.241-1.622c-0.541,4.132-3.929,3.69-3.929,3.69s6.247,1.836,9.415,0.411c-4.018,6.379-9.826,2.076-9.826,2.076 s-9.886-9.383-23.553-9.383c-15.994,0-22.17,12.596-22.17,12.596S284.967,184.068,305.134,184.068z"></path>
		</g>
	</g></g>
			<g id="hexatar-eyebrows"><g class="hexatar-base">
		<g class="hexatar-eyebrows-right"> 	<polygon class="col-obj" style="fill: rgb(66, 66, 66);" points="179.559,171.759 199.257,170.6 226.223,173.454 199.117,165.113"></polygon>
		</g>
		<g class="hexatar-eyebrows-left"> 	<polygon class="col-obj" style="fill: rgb(66, 66, 66);" points="333.153,173.292 313.573,170.853 286.478,171.944 314.07,165.386"></polygon> 	<polygon class="shadow-obj" style="opacity: 0.4; fill: rgb(40, 40, 40);" points="333.153,173.292 313.573,170.853 286.478,171.944 314.07,165.386"></polygon>
		</g>
	</g></g>	
		</g>
		<g id="hexatar-hair-front"><g class="element-front">
			<path class="col-obj" style="fill: rgb(132, 80, 0);" d="M256.008,7.172L152.64,71.357l-0.02,97.404h12.473V80.841 c66.982-59.842,83.08,93.806,180.803,68.958v18.962h12.492l0.02-97.404L256.008,7.172z"></path>
			<path class="shadow-obj" style="opacity: 0.4; fill: rgb(81, 49, 0);" d="M256.008,7.172l-0.004,0.003v108.364 c45.041,51.331,89.892,34.261,89.892,34.261v18.916h12.492l0.02-97.358L256.008,7.172z"></path>
			<g class="hair-ext" style="display: block;">
				<path class="col-obj" style="fill: rgb(132, 80, 0);" d="M256.011,7.173c-68.726-20.981-116.389,48.733-116.389,112.772 c0,17.426,3.863,33.942,10.751,48.769h3.215v0.046h5.249V75.65l97.167-64.156l96.033,64.156v93.11h6.35v-0.046h2.394 c6.886-14.827,10.746-31.344,10.746-48.769C371.527,55.906,328.496-9.488,256.011,7.173z"></path>
				<path class="shadow-obj" style="opacity: 0.4; fill: rgb(81, 49, 0);" d="M256.011,7.173c-0.002-0.001-0.005-0.001-0.007-0.002v4.323l96.033,64.156 v93.11h6.35v-0.046h2.394c6.886-14.827,10.746-31.344,10.746-48.769C371.527,55.906,328.496-9.488,256.011,7.173z"></path>
			</g>
		</g></g>
		<g id="hexatar-hat"></g>
		<g id="hexatar-eyeglasses"></g>
	</g>
	<desc>Avatar generated from Hexatar.com - created with Snap</desc><text transform="matrix(1 0 0 1 0 528)" font-size="12">Avatar generated from Hexatar.com</text></svg>